<?xml version="1.0" standalone="no"?>
<!DOCTYPE svg PUBLIC "-//W3C//DTD SVG 1.1//EN" "http://www.w3.org/Graphics/SVG/1.1/DTD/svg11.dtd" >
<svg xmlns="http://www.w3.org/2000/svg" xmlns:xlink="http://www.w3.org/1999/xlink" version="1.1">
<metadata>
Created by FontForge 20161013 at Wed Jan 15 15:11:25 2014
 By ,,,
Copyright (c) 2011-2012, Nikita Volchenkov &#60;nikitavolchenkov@gmail.com&#62;

Created with FontForge 2.0 (http://fontforge.sf.net)
</metadata>
<defs>
<font id="OpenGostTypeATT-Regular" horiz-adv-x="837" >
  <font-face 
    font-family="OpenGost Type A TT"
    font-weight="400"
    font-stretch="normal"
    units-per-em="2048"
    panose-1="2 0 5 3 0 0 0 0 0 0"
    ascent="1676"
    descent="-372"
    x-height="931"
    cap-height="1303"
    bbox="-93 -372 1489 1583"
    underline-thickness="93"
    underline-position="-277"
    unicode-range="U+000D-25FC"
  />
<missing-glyph horiz-adv-x="748" 
d="M68 0v1365h544v-1365h-544zM136 68h408v1229h-408v-1229z" />
    <glyph glyph-name=".notdef" horiz-adv-x="748" 
d="M68 0v1365h544v-1365h-544zM136 68h408v1229h-408v-1229z" />
    <glyph glyph-name="glyph1" horiz-adv-x="2048" 
 />
    <glyph glyph-name="glyph1" horiz-adv-x="2048" 
 />
    <glyph glyph-name="uni000D" unicode="&#xd;" horiz-adv-x="682" 
 />
    <glyph glyph-name="space" unicode=" " horiz-adv-x="558" 
 />
    <glyph glyph-name="exclam" unicode="!" horiz-adv-x="279" 
d="M93 46.5q0 19.5 13.5 33t33 13.5t33 -13.5t13.5 -33t-13.5 -33t-33 -13.5t-33 13.5t-13.5 33zM93 326v931q0 20 13.5 33t33 13t33 -13.5t13.5 -32.5v-931q0 -20 -13.5 -33.5t-33 -13.5t-33 13.5t-13.5 33.5z" />
    <glyph glyph-name="quotedbl" unicode="&#x22;" horiz-adv-x="418" 
d="M47 1071v11l47 186q4 15 17 25t29 10q20 0 33 -13.5t13 -32.5q0 -7 -1 -11l-46 -187q-4 -15 -17 -25t-29 -10q-20 0 -33 13.5t-13 33.5zM233 1071v11l47 186q4 15 17 25t29 10q20 0 33 -13.5t13 -32.5q0 -7 -1 -11l-46 -187q-4 -15 -17 -25t-29 -10q-20 0 -33 13.5
t-13 33.5z" />
    <glyph glyph-name="numbersign" unicode="#" 
d="M93 372.5q0 19.5 13.5 33t33.5 13.5h93v465h-93q-20 0 -33.5 13.5t-13.5 33t13.5 33t33.5 13.5h93v280q0 20 13.5 33t33 13t33 -13.5t13.5 -32.5v-280h186v280q0 20 13.5 33t33 13t33 -13.5t13.5 -32.5v-280h93q20 0 33.5 -13.5t13.5 -33t-13.5 -33t-33.5 -13.5h-93v-465
h93q20 0 33.5 -13.5t13.5 -33t-13.5 -33t-33.5 -13.5h-93v-279q0 -20 -13.5 -33.5t-33 -13.5t-33 13.5t-13.5 33.5v279h-186v-279q0 -20 -13.5 -33.5t-33 -13.5t-33 13.5t-13.5 33.5v279h-93q-20 0 -33.5 13.5t-13.5 33zM326 419h186v465h-186v-465z" />
    <glyph glyph-name="dollar" unicode="$" 
d="M93 93q0 20 13.5 33.5t33.5 13.5q19 0 32 -14q53 -53 200 -60v594l-225 276q-54 67 -54 153q0 108 80 174q73 61 199 67v113q0 20 13.5 33t33 13t33 -13.5t13.5 -32.5v-114q163 -12 238 -86q14 -14 14 -33q0 -20 -13.5 -33t-33.5 -13q-19 0 -32 14q-46 46 -173 57v-541
l217 -266q62 -77 63 -177q0 -123 -81 -198q-74 -68 -199 -79v-114q0 -20 -13.5 -33t-33 -13t-33 13.5t-13.5 32.5v113q-185 7 -265 88q-14 14 -14 32zM186 1089q0 -51 34 -94l152 -187v429q-94 -7 -140 -45q-46 -36 -46 -103zM465 67q85 8 135 54q51 47 52 130q0 66 -42 118
l-145 177v-479z" />
    <glyph glyph-name="percent" unicode="%" horiz-adv-x="1582" 
d="M93 1024q0 115 82 197t197.5 82t197.5 -82t82 -197t-82 -197t-197.5 -82t-197.5 82t-82 197zM186 1024q0 -77 54.5 -131.5t132 -54.5t132 54.5t54.5 131.5t-54.5 131.5t-132 54.5t-132 -54.5t-54.5 -131.5zM372 47q0 13 7 24l745 1210q14 22 40 22q20 0 33 -13.5
t13 -32.5q0 -13 -6 -24l-745 -1211q-14 -22 -40 -22q-20 0 -33.5 13.5t-13.5 33.5zM931 279.5q0 115.5 82 197.5t197.5 82t197 -82t81.5 -197.5t-81.5 -197.5t-197 -82t-197.5 82t-82 197.5zM1024 279.5q0 -77.5 54.5 -132t131.5 -54.5t131.5 54.5t54.5 132t-54.5 131.5
t-131.5 54t-131.5 -54t-54.5 -131.5z" />
    <glyph glyph-name="ampersand" unicode="&#x26;" horiz-adv-x="1024" 
d="M93 298q0 90 46 167l206 345l-126 199q-33 52 -33 113q0 87 61.5 148t148 61t148 -61.5t61.5 -147.5q0 -57 -30 -107l-121 -203l301 -475l95 114q13 15 34 14q20 0 33.5 -13.5t13.5 -32.5q0 -18 -9 -28l-115 -136l116 -183q7 -12 8 -25q0 -20 -13.5 -33.5t-33.5 -13.5
q-25 0 -39 21l-100 159l-77 -92q-46 -55 -110.5 -85.5t-138.5 -30.5q-135 0 -230.5 95.5t-95.5 230.5zM186 298q0 -97 68 -165t165 -68q109 0 179 84l95 114l-292 459l-182 -305q-33 -55 -33 -119zM279 1122q0 -34 18 -63l101 -160l97 163q17 29 17 60q0 48 -34 82t-82.5 34
t-82.5 -34t-34 -82z" />
    <glyph glyph-name="quotesingle" unicode="'" horiz-adv-x="232" 
d="M47 1071v11l47 186q4 15 17 25t29 10q20 0 33 -13.5t13 -32.5q0 -7 -1 -11l-46 -187q-4 -15 -17 -25t-29 -10q-20 0 -33 13.5t-13 33.5z" />
    <glyph glyph-name="parenleft" unicode="(" horiz-adv-x="372" 
d="M93 652q0 323 91 700q13 44 49 44q20 0 33 -13.5t13 -32.5q0 -8 -2 -12q-91 -345 -91 -686q0 -345 91 -686q2 -7 2 -13q0 -20 -13.5 -33t-32.5 -13q-18 0 -30.5 12.5t-17.5 32.5q-92 374 -92 700z" />
    <glyph glyph-name="parenright" unicode=")" horiz-adv-x="372" 
d="M93 -47q0 5 2 13q91 341 91 686t-91 686q-2 7 -2 12q0 20 14 33t33 13q36 0 48 -44q91 -377 91 -700t-91 -700q-12 -45 -48 -45q-19 0 -33 13.5t-14 32.5z" />
    <glyph glyph-name="asterisk" unicode="*" 
d="M186 1070.5q0 19.5 13.5 33t33.5 13.5h111l-60 119q-5 9 -5 21q0 20 13.5 33t33.5 13q29 0 42 -26l51 -102l51 102q13 26 42 26q20 0 33.5 -13.5t13.5 -32.5q0 -11 -5 -21l-60 -119h111q20 0 33.5 -13.5t13.5 -33t-13.5 -33t-33.5 -13.5h-111l60 -119q5 -9 5 -21
q0 -20 -13.5 -33t-33.5 -13q-29 0 -42 26l-51 102l-51 -102q-13 -26 -42 -26q-20 0 -33.5 13.5t-13.5 32.5q0 11 5 21l60 119h-111q-20 0 -33.5 13.5t-13.5 33z" />
    <glyph glyph-name="plus" unicode="+" horiz-adv-x="651" 
d="M47 465.5q0 19.5 13.5 33t32.5 13.5h186v186q0 20 13.5 33.5t33 13.5t33 -13.5t13.5 -33.5v-186h187q20 0 33 -13.5t13 -33t-13.5 -33t-32.5 -13.5h-187v-186q0 -20 -13.5 -33.5t-33 -13.5t-33 13.5t-13.5 33.5v186h-186q-20 0 -33 13.5t-13 33z" />
    <glyph glyph-name="comma" unicode="," horiz-adv-x="279" 
d="M47 -128l47 186q5 16 17.5 25.5t28.5 9.5q20 0 33 -13.5t13 -32.5q0 -6 -1 -12l-46 -186q-5 -16 -17.5 -25.5t-28.5 -9.5q-20 0 -33 13.5t-13 32.5v12z" />
    <glyph glyph-name="hyphen" unicode="-" horiz-adv-x="651" 
d="M47 465.5q0 19.5 13 33t33 13.5h466q20 0 33 -13.5t13 -33t-13.5 -33t-32.5 -13.5h-466q-20 0 -33 13.5t-13 33z" />
    <glyph glyph-name="period" unicode="." horiz-adv-x="279" 
d="M93 46.5q0 19.5 13.5 33t33 13.5t33 -13.5t13.5 -33t-13.5 -33t-33 -13.5t-33 13.5t-13.5 33z" />
    <glyph glyph-name="slash" unicode="/" horiz-adv-x="1024" 
d="M93 -140q0 11 4 19l745 1676q12 28 42 28q20 0 33.5 -13.5t13.5 -33.5q0 -11 -4 -19l-745 -1675q-13 -28 -42 -28q-20 0 -33.5 13.5t-13.5 32.5z" />
    <glyph glyph-name="zero" unicode="0" 
d="M93 298v707q0 135 95.5 230.5t230.5 95.5t230.5 -95.5t95.5 -230.5v-707q0 -135 -95.5 -230.5t-230.5 -95.5t-230.5 95.5t-95.5 230.5zM186 298q0 -97 68 -165t165 -68t165 68t68 165v707q0 97 -68 165t-165 68t-165 -68t-68 -165v-707z" />
    <glyph glyph-name="one" unicode="1" horiz-adv-x="512" 
d="M47 977q0 19 14 33l279 279q13 14 32 14q20 0 33.5 -13.5t13.5 -32.5v-1210q0 -20 -13.5 -33.5t-33 -13.5t-33 13.5t-13.5 33.5v1097l-200 -199q-14 -14 -33 -14q-20 0 -33 13.5t-13 32.5z" />
    <glyph glyph-name="two" unicode="2" 
d="M93 47q0 13 8 25l514 809q36 57 37 124q0 97 -68 165t-165 68q-83 0 -150 -51.5t-84 -125.5q-4 -16 -16.5 -26.5t-28.5 -10.5q-20 0 -33.5 13.5t-13.5 33.5q0 7 1 10q25 108 117.5 179t207.5 71q135 0 230.5 -95.5t95.5 -230.5q0 -96 -51 -175l-470 -737h474
q20 0 33.5 -13.5t13.5 -33t-13.5 -33t-33.5 -13.5h-558q-20 0 -33.5 13.5t-13.5 33.5z" />
    <glyph glyph-name="three" unicode="3" horiz-adv-x="744" 
d="M93 46.5q0 19.5 13.5 33t33.5 13.5h186q97 0 165 68t68 165v93q0 97 -68 165t-165 68q-20 0 -33.5 13.5t-13.5 33t13.5 33t33.5 13.5q76 0 131 55t55 131v93q0 76 -55 131t-131 55h-186q-20 0 -33.5 13.5t-13.5 33t13.5 33t33.5 13.5h186q115 0 197 -82t82 -197v-93
q0 -70 -31.5 -130t-86.5 -98q75 -43 120 -118.5t45 -165.5v-93q0 -135 -95.5 -230.5t-230.5 -95.5h-186q-20 0 -33.5 13.5t-13.5 33z" />
    <glyph glyph-name="four" unicode="4" 
d="M93 326q0 7 1 11l233 931q4 15 16.5 25t28.5 10q20 0 33.5 -13.5t13.5 -32.5q0 -4 -2 -11l-218 -874h266v233q0 20 13.5 33.5t33.5 13.5t33.5 -13.5t13.5 -33.5v-233h139q20 0 33.5 -13.5t13.5 -33t-13.5 -33t-33.5 -13.5h-139v-232q0 -20 -13.5 -33.5t-33.5 -13.5
t-33.5 13.5t-13.5 33.5v232h-325q-20 0 -33.5 13.5t-13.5 33.5z" />
    <glyph glyph-name="five" unicode="5" horiz-adv-x="744" 
d="M93 46.5q0 19.5 13.5 33t33.5 13.5h186q97 0 165 68t68 165v93q0 97 -68 165t-165 68h-186q-20 0 -33.5 13.5t-13.5 32.5v559q0 20 13.5 33t33.5 13h465q20 0 33.5 -13.5t13.5 -33t-13.5 -33t-33.5 -13.5h-419v-465h140q135 0 230.5 -95.5t95.5 -230.5v-93
q0 -135 -95.5 -230.5t-230.5 -95.5h-186q-20 0 -33.5 13.5t-13.5 33z" />
    <glyph glyph-name="six" unicode="6" 
d="M93 298v354q0 186 107.5 359t287.5 285q12 7 24 7q20 0 33.5 -13.5t13.5 -32.5q0 -25 -23 -39q-135 -85 -225.5 -210.5t-115.5 -262.5h224q135 0 230.5 -95.5t95.5 -230.5v-121q0 -135 -95.5 -230.5t-230.5 -95.5t-230.5 95.5t-95.5 230.5zM186 298q0 -97 68 -165
t165 -68t165 68t68 165v121q0 97 -68 165t-165 68h-233v-354z" />
    <glyph glyph-name="seven" unicode="7" horiz-adv-x="763" 
d="M47 1117v140q0 20 13 33t33 13h559q20 0 33 -13.5t13 -32.5q0 -7 -1 -11l-279 -1210q-4 -16 -16.5 -26t-29.5 -10q-20 0 -33 13.5t-13 33.5q0 7 1 10l266 1153h-453v-93q0 -20 -13.5 -33t-33 -13t-33 13.5t-13.5 32.5z" />
    <glyph glyph-name="eight" unicode="8" 
d="M65 358.5q0 182.5 103 287.5q33 33 75 56q-20 14 -42 35q-89 92 -89 254t89 255q83 85 218 85t218 -85q89 -92 89 -254.5t-89 -254.5q-21 -21 -42 -35q42 -23 74 -56q103 -105 103.5 -287.5t-103.5 -287.5q-98 -99 -250.5 -99t-250.5 99q-103 105 -103 287.5z
M158.5 358.5q-0.5 -144.5 76.5 -222.5q69 -71 184 -71t184 71q76 78 76.5 222.5t-76.5 222.5q-69 71 -184.5 71t-183.5 -71q-76 -78 -76.5 -222.5zM205 991.5q0 -123.5 63 -189.5q56 -58 151 -57.5t151 57.5q63 65 63 189t-63 189q-56 58 -151 58t-151 -58
q-63 -65 -63 -188.5z" />
    <glyph glyph-name="nine" unicode="9" 
d="M93 884v121q0 135 95.5 230.5t230.5 95.5t230.5 -95.5t95.5 -230.5v-354q0 -186 -107.5 -359t-287.5 -285q-12 -7 -24 -7q-20 0 -33.5 13.5t-13.5 32.5q0 25 23 39q135 85 225.5 210.5t115.5 262.5h-224q-135 0 -230.5 95.5t-95.5 230.5zM186 884q0 -97 68 -165t165 -68
h233v354q0 97 -68 165t-165 68t-165 -68t-68 -165v-121z" />
    <glyph glyph-name="colon" unicode=":" horiz-adv-x="279" 
d="M93 46.5q0 19.5 13.5 33t33 13.5t33 -13.5t13.5 -33t-13.5 -33t-33 -13.5t-33 13.5t-13.5 33zM93 605.5q0 19.5 13.5 33t33 13.5t33 -13.5t13.5 -33t-13.5 -33t-33 -13.5t-33 13.5t-13.5 33z" />
    <glyph glyph-name="semicolon" unicode=";" horiz-adv-x="279" 
d="M47 -128l47 186q5 16 17.5 25.5t28.5 9.5q20 0 33 -13.5t13 -32.5q0 -6 -1 -12l-46 -186q-5 -16 -17.5 -25.5t-28.5 -9.5q-20 0 -33 13.5t-13 32.5v12zM93 605.5q0 19.5 13.5 33t33 13.5t33 -13.5t13.5 -33t-13.5 -33t-33 -13.5t-33 13.5t-13.5 33z" />
    <glyph glyph-name="less" unicode="&#x3c;" horiz-adv-x="744" 
d="M93 465.5q0 28.5 26 41.5l464 232q11 6 22 6q20 0 33.5 -13.5t13.5 -33.5q0 -29 -26 -42l-382 -191l382 -190q26 -13 26 -42q0 -20 -13.5 -33.5t-33.5 -13.5q-11 0 -22 6l-464 232q-26 13 -26 41.5z" />
    <glyph glyph-name="equal" unicode="=" horiz-adv-x="651" 
d="M47 325.5q0 19.5 13 33t33 13.5h466q20 0 33 -13.5t13 -33t-13.5 -33t-32.5 -13.5h-466q-20 0 -33 13.5t-13 33zM47 605.5q0 19.5 13 33t33 13.5h466q20 0 33 -13.5t13 -33t-13.5 -33t-32.5 -13.5h-466q-20 0 -33 13.5t-13 33z" />
    <glyph glyph-name="greater" unicode="&#x3e;" horiz-adv-x="744" 
d="M93 233q0 29 26 42l382 190l-382 191q-26 13 -26 42q0 20 13.5 33.5t33.5 13.5q11 0 22 -6l464 -232q26 -13 26 -41.5t-26 -41.5l-464 -232q-11 -6 -22 -6q-20 0 -33.5 13.5t-13.5 33.5z" />
    <glyph glyph-name="question" unicode="?" horiz-adv-x="744" 
d="M93 1164q0 9 5 20q35 71 111 109t163 38q115 0 197.5 -82t82.5 -197q0 -102 -66 -180l-123 -148q-44 -53 -44 -119v-279q0 -20 -13.5 -33.5t-33 -13.5t-33 13.5t-13.5 33.5v279q0 102 65 180l124 148q44 53 44 119q0 76 -55 131t-132 55q-58 0 -115 -28.5t-75 -66.5
q-13 -26 -42 -26q-20 0 -33.5 13.5t-13.5 33.5zM326 46.5q0 19.5 13.5 33t33 13.5t33 -13.5t13.5 -33t-13.5 -33t-33 -13.5t-33 13.5t-13.5 33z" />
    <glyph glyph-name="at" unicode="@" horiz-adv-x="1489" 
d="M93 279v401q0 133 51.5 253.5t139 207.5t208 138.5t253.5 51.5t253.5 -51.5t207.5 -138.5t138.5 -207.5t51.5 -253.5v-354q0 -135 -95 -230.5t-230 -95.5q-38 0 -70.5 19t-50.5 52q-83 -89 -205 -90q-115 0 -197.5 82t-82.5 198v437q0 97 68 165t165 68h279
q20 0 33.5 -13.5t13.5 -33.5v-744q0 -20 13.5 -33.5t33.5 -13.5q97 0 164.5 68t67.5 165v354q0 152 -75 280t-203.5 203t-280 75t-280 -75t-203.5 -203.5t-75 -279.5v-401q0 -152 75 -280t203.5 -203t280.5 -75q20 0 33 -13.5t13 -33t-13.5 -33t-32.5 -13.5
q-133 0 -253.5 51.5t-208 138.5t-139 207.5t-51.5 253.5zM559 261q0 -76 54.5 -131.5t131 -55.5t131.5 55t55 132v577h-233q-58 0 -98.5 -41t-40.5 -99v-437z" />
    <glyph glyph-name="A" unicode="A" 
d="M47 47q0 5 1 12l326 1210q5 15 17 24.5t28 9.5t28.5 -9.5t17.5 -25.5l324 -1209q2 -7 2 -12q0 -20 -13.5 -33.5t-32.5 -13.5q-16 0 -28 10t-17 24l-91 338h-380l-91 -338q-5 -15 -17 -24.5t-28 -9.5q-20 0 -33 13.5t-13 33.5zM254 465h330l-165 613z" />
    <glyph glyph-name="B" unicode="B" horiz-adv-x="809" 
d="M93 47v1210q0 20 13.5 33t33.5 13h232q135 0 230.5 -95.5t95.5 -230.5q0 -86 -41 -158.5t-111 -116.5q90 -47 144.5 -135.5t54.5 -194.5q0 -155 -109 -263.5t-264 -108.5h-232q-20 0 -33.5 13.5t-13.5 33.5zM186 93h186q115 0 197.5 82t82.5 197.5t-82 197.5t-198 82
h-186v-559zM186 745h186q97 0 165 68t68 164.5t-68 164.5t-165 68h-186v-465z" />
    <glyph glyph-name="C" unicode="C" horiz-adv-x="707" 
d="M84 326v651q0 135 95.5 230.5t230.5 95.5h186q20 0 33 -13.5t13 -33t-13.5 -33t-32.5 -13.5h-186q-97 0 -165 -68t-68 -165v-651q0 -97 68 -165t165 -68h186q20 0 33 -13.5t13 -33t-13.5 -33t-32.5 -13.5h-186q-135 0 -230.5 95.5t-95.5 230.5z" />
    <glyph glyph-name="D" unicode="D" horiz-adv-x="828" 
d="M93 47v1210q0 20 13.5 33t33.5 13h279q135 0 230.5 -95.5t95.5 -230.5v-651q0 -135 -95.5 -230.5t-230.5 -95.5h-279q-20 0 -33.5 13.5t-13.5 33.5zM186 93h233q97 0 165 68t68 165v651q0 97 -68 165t-165 68h-233v-1117z" />
    <glyph glyph-name="E" unicode="E" horiz-adv-x="726" 
d="M93 47v1210q0 20 13.5 33t33.5 13h465q20 0 33.5 -13.5t13.5 -33t-13.5 -33t-33.5 -13.5h-419v-465h233q20 0 33 -13.5t13 -33t-13.5 -33t-32.5 -13.5h-233v-559h419q20 0 33.5 -13.5t13.5 -33t-13.5 -33t-33.5 -13.5h-465q-20 0 -33.5 13.5t-13.5 33.5z" />
    <glyph glyph-name="F" unicode="F" horiz-adv-x="726" 
d="M93 47v1210q0 20 13.5 33t33.5 13h465q20 0 33.5 -13.5t13.5 -33t-13.5 -33t-33.5 -13.5h-419v-465h419q20 0 33.5 -13.5t13.5 -33t-13.5 -33t-33.5 -13.5h-419v-605q0 -20 -13.5 -33.5t-33 -13.5t-33 13.5t-13.5 33.5z" />
    <glyph glyph-name="G" unicode="G" horiz-adv-x="828" 
d="M84 326v651q0 135 95.5 230.5t230.5 95.5h279q20 0 33 -13.5t13 -33t-13.5 -33t-32.5 -13.5h-279q-97 0 -165 -68t-68 -165v-651q0 -97 68 -165t165 -68h232v559h-139q-20 0 -33.5 13.5t-13.5 33t13.5 33t33.5 13.5h186q20 0 33 -13.5t13 -33.5v-651q0 -20 -13.5 -33.5
t-32.5 -13.5h-279q-135 0 -230.5 95.5t-95.5 230.5z" />
    <glyph glyph-name="H" unicode="H" 
d="M93 47v1210q0 20 13.5 33t33 13t33 -13.5t13.5 -32.5v-512h466v512q0 20 13.5 33t33 13t33 -13.5t13.5 -32.5v-1210q0 -20 -13.5 -33.5t-33 -13.5t-33 13.5t-13.5 33.5v605h-466v-605q0 -20 -13.5 -33.5t-33 -13.5t-33 13.5t-13.5 33.5z" />
    <glyph glyph-name="I" unicode="I" horiz-adv-x="279" 
d="M93 47v1210q0 20 13.5 33t33 13t33 -13.5t13.5 -32.5v-1210q0 -20 -13.5 -33.5t-33 -13.5t-33 13.5t-13.5 33.5z" />
    <glyph glyph-name="J" unicode="J" horiz-adv-x="595" 
d="M47 46.5q0 19.5 13.5 33t32.5 13.5h93q97 0 165 68t68 165v931q0 20 13.5 33t33 13t33 -13.5t13.5 -32.5v-931q0 -135 -95.5 -230.5t-230.5 -95.5h-93q-20 0 -33 13.5t-13 33z" />
    <glyph glyph-name="K" unicode="K" horiz-adv-x="819" 
d="M93 47v1210q0 20 13.5 33t33 13t33 -13.5t13.5 -32.5v-605l475 633q13 18 35 18h2q20 0 33.5 -13.5t13.5 -32.5q0 -16 -10 -28l-359 -480l363 -680q6 -9 6 -22q0 -20 -13.5 -33.5t-33.5 -13.5q-29 0 -41 24l-342 643l-129 -171v-449q0 -20 -13.5 -33.5t-33 -13.5
t-33 13.5t-13.5 33.5z" />
    <glyph glyph-name="L" unicode="L" horiz-adv-x="605" 
d="M93 47v1210q0 20 13.5 33t33 13t33 -13.5t13.5 -32.5v-1164h326q20 0 33.5 -13.5t13.5 -33t-13.5 -33t-33.5 -13.5h-372q-20 0 -33.5 13.5t-13.5 33.5z" />
    <glyph glyph-name="M" unicode="M" horiz-adv-x="1024" 
d="M93 47v1210q0 20 13.5 33t33.5 13q27 0 40 -23l332 -581l332 581q13 23 40 23q20 0 33.5 -13.5t13.5 -32.5v-1210q0 -20 -13.5 -33.5t-33 -13.5t-33 13.5t-13.5 33.5v1035l-286 -500q-13 -23 -40 -23t-41 24l-285 499v-1035q0 -20 -13.5 -33.5t-33 -13.5t-33 13.5
t-13.5 33.5z" />
    <glyph glyph-name="N" unicode="N" 
d="M93 47v1210q0 20 13.5 33t33.5 13q30 0 42 -27l470 -1017v998q0 20 13.5 33t33 13t33 -13.5t13.5 -32.5v-1210q0 -20 -13.5 -33.5t-33.5 -13.5q-30 0 -42 27l-470 1017v-997q0 -20 -13.5 -33.5t-33 -13.5t-33 13.5t-13.5 33.5z" />
    <glyph glyph-name="O" unicode="O" horiz-adv-x="819" 
d="M84 298v707q0 135 95.5 230.5t230.5 95.5t230 -95.5t95 -230.5v-707q0 -135 -95 -230.5t-230 -95.5t-230.5 95.5t-95.5 230.5zM177 298q0 -97 68 -165t164.5 -68t164.5 68t68 165v707q0 97 -68 165t-164.5 68t-164.5 -68t-68 -165v-707z" />
    <glyph glyph-name="P" unicode="P" horiz-adv-x="809" 
d="M93 47v1210q0 20 13.5 33t33.5 13h232q155 0 264 -109t109 -263.5t-109 -263t-264 -108.5h-186v-512q0 -20 -13.5 -33.5t-33 -13.5t-33 13.5t-13.5 33.5zM186 652h186q115 0 197.5 81.5t82.5 197t-82 197.5t-198 82h-186v-558z" />
    <glyph glyph-name="Q" unicode="Q" horiz-adv-x="828" 
d="M84 298v707q0 135 95.5 230.5t230.5 95.5t230 -95.5t95 -230.5v-707q0 -71 -29 -136l104 -78q19 -14 19 -37q0 -20 -13.5 -33.5t-33.5 -13.5q-16 0 -28 9l-99 75q-46 -52 -110 -82t-135 -30q-135 0 -230.5 95.5t-95.5 230.5zM177 298q0 -97 68 -165t165 -68q101 0 170 75
l-198 149q-19 14 -19 37q0 20 13.5 33t33.5 13q16 0 28 -9l191 -143q13 37 13 78v707q0 97 -68 165t-164.5 68t-164.5 -68t-68 -165v-707z" />
    <glyph glyph-name="R" unicode="R" horiz-adv-x="819" 
d="M93 47v1210q0 20 13.5 33t33.5 13h232q155 0 264 -109t109 -263q0 -134 -84 -236t-212 -129l289 -496q7 -11 7 -23q0 -20 -13.5 -33.5t-33.5 -13.5q-26 0 -40 23l-313 536h-159v-512q0 -20 -13.5 -33.5t-33 -13.5t-33 13.5t-13.5 33.5zM186 652h186q115 0 197.5 81.5
t82.5 197t-82 197.5t-198 82h-186v-558z" />
    <glyph glyph-name="S" unicode="S" horiz-adv-x="791" 
d="M74 93q0 20 13.5 33.5t33.5 13.5q19 0 33 -14q61 -61 246 -61q121 0 182 56q51 47 51 130q0 66 -42 118l-463 567q-54 67 -54 153q0 108 81 174q81 68 231 68q210 0 298 -88q14 -14 14 -33q0 -20 -13.5 -33t-32.5 -13t-33 14q-26 26 -87 43t-146 17q-115 0 -173 -46
q-45 -35 -45 -100q0 -54 33 -97l463 -567q62 -77 62 -177q0 -123 -81 -198q-87 -81 -245 -81q-111 0 -186.5 19t-125.5 70q-14 14 -14 32z" />
    <glyph glyph-name="T" unicode="T" horiz-adv-x="781" 
d="M65 1256.5q0 19.5 13.5 33t33.5 13.5h558q20 0 33.5 -13.5t13.5 -33t-13.5 -33t-33.5 -13.5h-232v-1163q0 -20 -13.5 -33.5t-33.5 -13.5t-33.5 13.5t-13.5 33.5v1163h-232q-20 0 -33.5 13.5t-13.5 33z" />
    <glyph glyph-name="U" unicode="U" 
d="M93 298v959q0 20 13.5 33t33 13t33 -13.5t13.5 -32.5v-959q0 -97 68 -165t165 -68t165 68t68 165v959q0 20 13.5 33t33 13t33 -13.5t13.5 -32.5v-959q0 -135 -95.5 -230.5t-230.5 -95.5t-230.5 95.5t-95.5 230.5z" />
    <glyph glyph-name="V" unicode="V" 
d="M47 1257q0 20 13 33t33 13q16 0 28 -9.5t17 -24.5l281 -1044l280 1043q5 16 17.5 25.5t28.5 9.5q20 0 33 -13.5t13 -32.5q0 -5 -2 -12l-324 -1210q-5 -16 -17.5 -25.5t-28.5 -9.5t-28.5 10t-17.5 25l-325 1210q-2 7 -1 12z" />
    <glyph glyph-name="W" unicode="W" horiz-adv-x="1228" 
d="M56 1257q0 20 13 33t33 13q17 0 30 -11t16 -27l199 -1035l224 669q11 32 43 32q15 0 27.5 -9.5t17.5 -23.5l223 -668l199 1035q3 16 16 27t29 11q20 0 33.5 -13.5t13.5 -32.5q0 -6 -1 -9l-233 -1210q-3 -16 -16 -27t-29 -11q-15 0 -27.5 9.5t-17.5 23.5l-235 704
l-234 -704q-5 -14 -17.5 -23.5t-27.5 -9.5q-17 0 -30 11t-15 27l-233 1210q-1 3 -1 9z" />
    <glyph glyph-name="X" unicode="X" horiz-adv-x="893" 
d="M74 47q0 13 6 22l314 583l-314 582q-6 9 -6 23q0 20 13.5 33t33.5 13q29 0 41 -24l285 -529l285 529q12 24 41 24q20 0 33 -13.5t13 -32.5q0 -13 -5 -23l-314 -582l314 -583q6 -9 5 -22q0 -20 -13.5 -33.5t-32.5 -13.5q-29 0 -41 24l-285 529l-285 -529q-12 -24 -41 -24
q-20 0 -33.5 13.5t-13.5 33.5z" />
    <glyph glyph-name="Y" unicode="Y" 
d="M47 1257q0 20 13 33t33 13q29 0 41 -24l285 -529l285 529q12 24 41 24q20 0 33 -13.5t13 -32.5q0 -13 -5 -23l-321 -594v-593q0 -20 -13.5 -33.5t-33 -13.5t-33 13.5t-13.5 33.5v593l-320 594q-6 9 -5 23z" />
    <glyph glyph-name="Z" unicode="Z" horiz-adv-x="781" 
d="M65 47q0 10 5 19l528 1144h-486q-20 0 -33.5 13.5t-13.5 33t13.5 33t33.5 13.5h558q20 0 33.5 -13.5t13.5 -32.5q0 -10 -5 -20l-528 -1144h486q20 0 33.5 -13.5t13.5 -33t-13.5 -33t-33.5 -13.5h-558q-20 0 -33.5 13.5t-13.5 33.5z" />
    <glyph glyph-name="bracketleft" unicode="[" horiz-adv-x="372" 
d="M93 -47v1397q0 20 13.5 33t33.5 13h93q20 0 33 -13.5t13 -33t-13.5 -33t-32.5 -13.5h-47v-1303h47q20 0 33 -13.5t13 -33t-13.5 -33t-32.5 -13.5h-93q-20 0 -33.5 13.5t-13.5 32.5z" />
    <glyph glyph-name="backslash" unicode="\" horiz-adv-x="1024" 
d="M93 1536q0 20 13.5 33.5t33.5 13.5q30 0 42 -28l745 -1676q4 -7 4 -19q0 -20 -13.5 -33t-33.5 -13q-30 0 -42 28l-745 1675q-4 7 -4 19z" />
    <glyph glyph-name="bracketright" unicode="]" horiz-adv-x="372" 
d="M93 -46.5q0 19.5 13.5 33t33.5 13.5h46v1303h-46q-20 0 -33.5 13.5t-13.5 33t13.5 33t33.5 13.5h93q20 0 33 -13.5t13 -32.5v-1397q0 -20 -13.5 -33t-32.5 -13h-93q-20 0 -33.5 13.5t-13.5 33z" />
    <glyph glyph-name="asciicircum" unicode="^" horiz-adv-x="558" 
d="M47 1257q0 20 14 32l186 186q13 14 32.5 14t32.5 -14l186 -186q14 -13 14 -32q0 -20 -13.5 -33.5t-33.5 -13.5t-32 14l-154 153l-153 -153q-13 -14 -33 -14t-33 13.5t-13 33.5z" />
    <glyph glyph-name="underscore" unicode="_" horiz-adv-x="744" 
d="M0 -139.5q0 19.5 13.5 33t33.5 13.5h651q20 0 33.5 -13.5t13.5 -33t-13.5 -33t-33.5 -13.5h-651q-20 0 -33.5 13.5t-13.5 33z" />
    <glyph glyph-name="grave" unicode="`" horiz-adv-x="279" 
d="M93 1257q0 20 13.5 33t33.5 13q29 0 42 -26l46 -93q5 -11 5 -20q0 -20 -13.5 -33.5t-33.5 -13.5q-29 0 -42 26l-46 93q-5 11 -5 21z" />
    <glyph glyph-name="a" unicode="a" horiz-adv-x="763" 
d="M84 261v437q0 97 68 165t165 68h279q20 0 33 -13.5t13 -33.5v-744q0 -20 13.5 -33.5t33 -13.5t33 -13.5t13.5 -33t-13.5 -33t-32.5 -13.5q-38 0 -70.5 19t-50.5 52q-83 -89 -205 -90q-115 0 -197 82t-82 198zM177 261q0 -76 55 -131.5t131 -55.5t131 55t55 132v577h-232
q-58 0 -99 -41t-41 -99v-437z" />
    <glyph glyph-name="b" unicode="b" horiz-adv-x="735" 
d="M93 47v1210q0 20 13.5 33t33 13t33 -13.5t13.5 -32.5v-326h233q97 0 165 -68t68 -165v-465q0 -97 -68 -165t-165 -68h-279q-20 0 -33.5 13.5t-13.5 33.5zM186 93h233q58 0 99 41t41 99v465q0 58 -41 99t-99 41h-233v-745z" />
    <glyph glyph-name="c" unicode="c" horiz-adv-x="623" 
d="M84 233v465q0 97 68 165t165 68h186q20 0 33 -13.5t13 -33t-13.5 -33t-32.5 -13.5h-186q-58 0 -99 -41t-41 -99v-465q0 -58 41 -99t99 -41h186q20 0 33 -13.5t13 -33t-13.5 -33t-32.5 -13.5h-186q-97 0 -165 68t-68 165z" />
    <glyph glyph-name="d" unicode="d" horiz-adv-x="735" 
d="M84 233v465q0 97 68 165t165 68h232v326q0 20 13.5 33t33 13t33 -13.5t13.5 -32.5v-1210q0 -20 -13.5 -33.5t-32.5 -13.5h-279q-97 0 -165 68t-68 165zM177 233q0 -58 41 -99t99 -41h232v745h-232q-58 0 -99 -41t-41 -99v-465z" />
    <glyph glyph-name="e" unicode="e" horiz-adv-x="726" 
d="M84 233v437q0 115 82 197.5t197 82.5t197 -82t82 -198v-205q0 -20 -13.5 -33t-32.5 -13h-419v-186q0 -58 41 -99t99 -41h279q20 0 33 -13.5t13 -33t-13.5 -33t-32.5 -13.5h-279q-97 0 -165 68t-68 165zM177 512h372v158q0 76 -55 131t-131 55t-131 -54.5t-55 -131.5v-158
z" />
    <glyph glyph-name="f" unicode="f" horiz-adv-x="465" 
d="M47 884.5q0 19.5 13.5 33t32.5 13.5h47v186q0 76 55 131t131 55h46q20 0 33.5 -13.5t13.5 -33t-13.5 -33t-33.5 -13.5h-46q-38 0 -65.5 -27.5t-27.5 -65.5v-186h139q20 0 33.5 -13.5t13.5 -33t-13.5 -33t-33.5 -13.5h-139v-791q0 -20 -13.5 -33.5t-33 -13.5t-33 13.5
t-13.5 33.5v791h-47q-20 0 -33 13.5t-13 33z" />
    <glyph glyph-name="g" unicode="g" horiz-adv-x="735" 
d="M84 233v465q0 97 68 165t165 68h279q20 0 33 -13.5t13 -33.5v-1024q0 -97 -68 -164.5t-164 -67.5h-280q-20 0 -33 13.5t-13 33t13.5 33t32.5 13.5h280q58 0 98.5 41t40.5 98v140h-232q-97 0 -165 68t-68 165zM177 233q0 -58 41 -99t99 -41h232v745h-232q-58 0 -99 -41
t-41 -99v-465z" />
    <glyph glyph-name="h" unicode="h" horiz-adv-x="744" 
d="M93 47v1210q0 20 13.5 33t33 13t33 -13.5t13.5 -32.5v-326h233q97 0 165 -68t68 -165v-651q0 -20 -13.5 -33.5t-33 -13.5t-33 13.5t-13.5 33.5v651q0 58 -41 99t-99 41h-233v-791q0 -20 -13.5 -33.5t-33 -13.5t-33 13.5t-13.5 33.5z" />
    <glyph glyph-name="i" unicode="i" horiz-adv-x="279" 
d="M93 47v837q0 20 13.5 33.5t33 13.5t33 -13.5t13.5 -33.5v-837q0 -20 -13.5 -33.5t-33 -13.5t-33 13.5t-13.5 33.5zM93 1256.5q0 19.5 13.5 33t33 13.5t33 -13.5t13.5 -33t-13.5 -33t-33 -13.5t-33 13.5t-13.5 33z" />
    <glyph glyph-name="j" unicode="j" horiz-adv-x="279" 
d="M-93 -325.5q0 19.5 13.5 33t32.5 13.5q58 0 99 41t41 98v1024q0 20 13.5 33.5t33 13.5t33 -13.5t13.5 -33.5v-1024q0 -97 -68 -164.5t-165 -67.5q-20 0 -33 13.5t-13 33zM93 1256.5q0 19.5 13.5 33t33 13.5t33 -13.5t13.5 -33t-13.5 -33t-33 -13.5t-33 13.5t-13.5 33z
" />
    <glyph glyph-name="k" unicode="k" horiz-adv-x="716" 
d="M93 47v1210q0 20 13.5 33t33 13t33 -13.5t13.5 -32.5v-725l387 385q14 14 32 14q20 0 33.5 -13.5t13.5 -33.5q0 -19 -14 -32l-299 -300l305 -480q7 -12 8 -25q0 -20 -13.5 -33.5t-33.5 -13.5q-26 0 -40 22l-294 463l-85 -86v-352q0 -20 -13.5 -33.5t-33 -13.5t-33 13.5
t-13.5 33.5z" />
    <glyph glyph-name="l" unicode="l" horiz-adv-x="409" 
d="M84 233v1024q0 20 13.5 33t33 13t33 -13.5t13.5 -32.5v-1024q0 -58 41 -99t99 -41q20 0 33 -13.5t13 -33t-13.5 -33t-32.5 -13.5q-97 0 -165 68t-68 165z" />
    <glyph glyph-name="m" unicode="m" horiz-adv-x="1024" 
d="M93 47v837q0 20 13.5 33.5t33.5 13.5h558q97 0 165 -68t68 -165v-651q0 -20 -13.5 -33.5t-33 -13.5t-33 13.5t-13.5 33.5v651q0 58 -41 99t-99 41h-139v-791q0 -20 -13.5 -33.5t-33.5 -13.5t-33.5 13.5t-13.5 33.5v791h-279v-791q0 -20 -13.5 -33.5t-33 -13.5t-33 13.5
t-13.5 33.5z" />
    <glyph glyph-name="n" unicode="n" horiz-adv-x="744" 
d="M93 47v837q0 20 13.5 33.5t33.5 13.5h279q97 0 165 -68t68 -165v-651q0 -20 -13.5 -33.5t-33 -13.5t-33 13.5t-13.5 33.5v651q0 58 -41 99t-99 41h-233v-791q0 -20 -13.5 -33.5t-33 -13.5t-33 13.5t-13.5 33.5z" />
    <glyph glyph-name="o" unicode="o" horiz-adv-x="726" 
d="M84 261v409q0 115 82 197.5t197 82.5t197 -82t82 -198v-409q0 -115 -82 -197.5t-197 -82.5t-197 82t-82 198zM177 261q0 -76 55 -131.5t131 -55.5t131 55t55 132v409q0 76 -55 131t-131 55t-131 -54.5t-55 -131.5v-409z" />
    <glyph glyph-name="p" unicode="p" horiz-adv-x="735" 
d="M93 -326v1210q0 20 13.5 33.5t33.5 13.5h279q97 0 165 -68t68 -165v-465q0 -97 -68 -165t-165 -68h-233v-326q0 -20 -13.5 -33t-33 -13t-33 13.5t-13.5 32.5zM186 93h233q58 0 99 41t41 99v465q0 58 -41 99t-99 41h-233v-745z" />
    <glyph glyph-name="q" unicode="q" horiz-adv-x="735" 
d="M84 233v465q0 97 68 165t165 68h279q20 0 33 -13.5t13 -33.5v-1210q0 -20 -13.5 -33t-33 -13t-33 13.5t-13.5 32.5v326h-232q-97 0 -165 68t-68 165zM177 233q0 -58 41 -99t99 -41h232v745h-232q-58 0 -99 -41t-41 -99v-465z" />
    <glyph glyph-name="r" unicode="r" horiz-adv-x="605" 
d="M93 47v837q0 20 13.5 33.5t33.5 13.5h232q76 0 131.5 -55t55.5 -131q0 -20 -13.5 -33.5t-33.5 -13.5t-33.5 13.5t-13.5 33.5q0 38 -27 65.5t-66 27.5h-186v-791q0 -20 -13.5 -33.5t-33 -13.5t-33 13.5t-13.5 33.5z" />
    <glyph glyph-name="s" unicode="s" horiz-adv-x="698" 
d="M74 93q0 20 13.5 33.5t33.5 13.5q19 0 33 -14q51 -51 200 -52q101 0 148 43q38 35 38 97q0 68 -54 110l-332 259q-79 61 -80 162q0 94 70 149q72 56 200 56q178 0 256 -80q14 -14 14 -32q0 -20 -13.5 -33.5t-32.5 -13.5t-33 14q-27 27 -69.5 39t-121.5 12q-96 0 -142 -36
q-34 -27 -34 -75q0 -55 42 -89l334 -259q89 -70 89 -183q0 -103 -69 -166q-74 -67 -210 -67q-187 0 -266 80q-14 14 -14 32z" />
    <glyph glyph-name="t" unicode="t" horiz-adv-x="465" 
d="M47 884.5q0 19.5 13.5 33t32.5 13.5h47v326q0 20 13.5 33t33 13t33 -13.5t13.5 -32.5v-326h139q20 0 33.5 -13.5t13.5 -33t-13.5 -33t-33.5 -13.5h-139v-791q0 -20 -13.5 -33.5t-33 -13.5t-33 13.5t-13.5 33.5v791h-47q-20 0 -33 13.5t-13 33z" />
    <glyph glyph-name="u" unicode="u" horiz-adv-x="744" 
d="M93 233v651q0 20 13.5 33.5t33 13.5t33 -13.5t13.5 -33.5v-651q0 -58 41 -99t99 -41h233v791q0 20 13.5 33.5t33 13.5t33 -13.5t13.5 -33.5v-837q0 -20 -13.5 -33.5t-33.5 -13.5h-279q-97 0 -165 68t-68 165z" />
    <glyph glyph-name="v" unicode="v" horiz-adv-x="688" 
d="M65 884q0 20 13.5 33.5t33.5 13.5q16 0 28 -10t16 -25l188 -675l188 675q5 15 17 25t28 10q20 0 33.5 -13.5t13.5 -33.5q0 -5 -2 -12l-233 -838q-5 -15 -17 -24.5t-27.5 -9.5t-28 10t-16.5 24l-233 838q-2 7 -2 12z" />
    <glyph glyph-name="w" unicode="w" horiz-adv-x="1079" 
d="M74 884q0 20 13.5 33.5t33.5 13.5q17 0 29.5 -10.5t16.5 -25.5l150 -681l179 500q11 31 44 31t44 -31l178 -500l151 681q4 16 16.5 26t29.5 10q20 0 33 -13.5t13 -33.5q0 -7 -1 -10l-186 -837q-4 -16 -16.5 -26.5t-28.5 -10.5q-33 0 -44 31l-189 528l-189 -528
q-11 -31 -44 -31q-17 0 -29.5 10.5t-15.5 26.5l-187 837q-1 3 -1 10z" />
    <glyph glyph-name="x" unicode="x" horiz-adv-x="707" 
d="M74 47q0 13 6 22l221 396l-221 397q-6 9 -6 22q0 20 13.5 33.5t33.5 13.5q26 0 41 -24l192 -346l192 346q15 24 40 24q20 0 33.5 -13.5t13.5 -33.5q0 -13 -6 -22l-220 -397l220 -396q6 -9 6 -22q0 -20 -13.5 -33.5t-33.5 -13.5q-26 0 -40 24l-192 346l-192 -346
q-15 -24 -41 -24q-20 0 -33.5 13.5t-13.5 33.5z" />
    <glyph glyph-name="y" unicode="y" horiz-adv-x="698" 
d="M74 -325.5q0 19.5 13.5 33t33.5 13.5q36 0 72 25t48 68l64 233l-229 825q-2 7 -2 12q0 20 13.5 33.5t33.5 13.5q16 0 28 -10.5t17 -24.5l188 -675l188 675q5 15 17 25t27 10q20 0 33.5 -13.5t13.5 -33.5q0 -5 -2 -12l-294 -1058q-30 -105 -80.5 -145.5t-135.5 -40.5
q-20 0 -33.5 13.5t-13.5 33z" />
    <glyph glyph-name="z" unicode="z" horiz-adv-x="707" 
d="M74 47q0 13 6 22l427 769h-386q-20 0 -33.5 13.5t-13.5 33t13.5 33t33.5 13.5h465q20 0 33.5 -13.5t13.5 -33.5q0 -13 -6 -22l-427 -769h386q20 0 33.5 -13.5t13.5 -33t-13.5 -33t-33.5 -13.5h-465q-20 0 -33.5 13.5t-13.5 33.5z" />
    <glyph glyph-name="braceleft" unicode="{" horiz-adv-x="465" 
d="M93 651.5q0 19.5 13.5 33t33 13.5t33 13.5t13.5 33.5v512q0 58 41 98.5t99 40.5q20 0 33 -13.5t13 -33t-13.5 -33t-33 -13.5t-33 -13.5t-13.5 -32.5v-512q0 -53 -35 -93q35 -40 35 -93v-512q0 -20 13.5 -33.5t33 -13.5t33 -13.5t13.5 -33t-13.5 -33t-32.5 -13.5
q-58 0 -99 41t-41 99v512q0 20 -13.5 33t-33 13t-33 13.5t-13.5 33z" />
    <glyph glyph-name="bar" unicode="|" horiz-adv-x="279" 
d="M93 -47v1397q0 20 13.5 33t33 13t33 -13.5t13.5 -32.5v-1397q0 -20 -13.5 -33t-33 -13t-33 13.5t-13.5 32.5z" />
    <glyph glyph-name="braceright" unicode="}" horiz-adv-x="465" 
d="M93 -46.5q0 19.5 13.5 33t33 13.5t33 13.5t13.5 33.5v512q0 53 36 93q-35 40 -36 93v512q0 20 -13.5 33t-33 13t-33 13.5t-13.5 33t13.5 33t33.5 13.5q58 0 98.5 -41t40.5 -98v-512q0 -20 13.5 -33.5t33 -13.5t33 -13.5t13.5 -33t-13.5 -33t-33 -13.5t-33 -13.5
t-13.5 -32.5v-512q0 -58 -41 -99t-98 -41q-20 0 -33.5 13.5t-13.5 33z" />
    <glyph glyph-name="asciitilde" unicode="~" 
d="M93 465q0 25 22 40q78 54 164 54q88 0 167 -55q54 -38 112.5 -38.5t112.5 38.5q11 8 27 8q20 0 33.5 -13.5t13.5 -33.5q0 -24 -23 -40q-76 -53 -163.5 -53t-166.5 55q-54 38 -112.5 38t-111.5 -37q-14 -9 -28 -9q-20 0 -33.5 13.5t-13.5 32.5z" />
    <glyph glyph-name="uni00A0" unicode="&#xa0;" horiz-adv-x="558" 
 />
    <glyph glyph-name="cent" unicode="&#xa2;" horiz-adv-x="744" 
d="M93 233v465q0 97 68 165t165 68h46v140q0 20 13.5 33t33 13t33 -13.5t13.5 -32.5v-140h140q20 0 33.5 -13.5t13.5 -33t-13.5 -33t-33.5 -13.5h-140v-745h140q20 0 33.5 -13.5t13.5 -33t-13.5 -33t-33.5 -13.5h-140v-140q0 -20 -13.5 -33t-33 -13t-33 13.5t-13.5 32.5v140
h-46q-97 0 -165 68t-68 165zM186 233q0 -58 41 -99t99 -41h46v745h-46q-58 0 -99 -41t-41 -99v-465z" />
    <glyph glyph-name="sterling" unicode="&#xa3;" 
d="M93 46.5q0 19.5 13.5 33t33 13.5t33 13.5t13.5 33.5v512h-46q-20 0 -33.5 13.5t-13.5 33t13.5 33t33.5 13.5h46v326q0 97 68 164.5t165 67.5t165 -68t68 -164q0 -20 -13.5 -33.5t-33 -13.5t-33 13.5t-13.5 33.5q0 58 -41 98.5t-99 40.5t-99 -41t-41 -98v-326h140
q20 0 33 -13.5t13 -33t-13.5 -33t-32.5 -13.5h-140v-512q0 -24 -8 -47h288q38 0 65.5 27.5t27.5 65.5q0 20 13.5 33.5t33 13.5t33 -13.5t13.5 -33.5q0 -77 -54.5 -131.5t-131.5 -54.5h-419q-20 0 -33.5 13.5t-13.5 33z" />
    <glyph glyph-name="yen" unicode="&#xa5;" horiz-adv-x="930" 
d="M93 1257q0 20 13.5 33t33.5 13q28 0 41 -24l284 -529l285 529q13 24 41 24q20 0 33.5 -13.5t13.5 -32.5q0 -12 -6 -23l-263 -489h176q20 0 33 -13.5t13 -33t-13.5 -33t-32.5 -13.5h-226l-7 -12v-81h233q20 0 33 -13.5t13 -33.5t-13.5 -33.5t-32.5 -13.5h-233v-418
q0 -20 -13.5 -33.5t-33 -13.5t-33 13.5t-13.5 33.5v418h-233q-20 0 -33 13.5t-13 33.5t13.5 33.5t32.5 13.5h233v81l-7 12h-226q-20 0 -33 13.5t-13 33t13.5 33t32.5 13.5h176l-263 489q-6 10 -6 23z" />
    <glyph glyph-name="dieresis" unicode="&#xa8;" horiz-adv-x="558" 
d="M93 1256.5q0 19.5 13.5 33t33 13.5t33 -13.5t13.5 -33t-13.5 -33t-33 -13.5t-33 13.5t-13.5 33zM372 1256.5q0 19.5 13.5 33t33 13.5t33 -13.5t13.5 -33t-13.5 -33t-33 -13.5t-33 13.5t-13.5 33z" />
    <glyph glyph-name="copyright" unicode="&#xa9;" horiz-adv-x="1582" 
d="M93 837.5q0 142.5 55.5 271.5t149 222.5t222.5 149t271.5 55.5t271.5 -55.5t222.5 -149t148.5 -222.5t55 -271.5t-55 -271t-148.5 -222.5t-222.5 -149t-271.5 -55t-271.5 55t-222.5 149t-149 222.5t-55.5 271zM186 838q0 -123 48 -235t129 -193t193 -129t235 -48
t235.5 48t193 129t128.5 193t48 235t-48 235t-128.5 193t-193 129t-235.5 48t-235 -48t-193 -129t-129 -193t-48 -235zM512 605v466q0 97 68 164.5t165 67.5h186q20 0 33 -13.5t13 -33t-13.5 -33t-32.5 -13.5h-186q-58 0 -99 -41t-41 -98v-466q0 -58 41 -99t99 -41h186
q20 0 33 -13.5t13 -33t-13.5 -33t-32.5 -13.5h-186q-97 0 -165 68t-68 165z" />
    <glyph glyph-name="guillemotleft" unicode="&#xab;" horiz-adv-x="791" 
d="M93 465q0 15 9 28l232 325q14 20 38 20q20 0 33.5 -13.5t13.5 -33.5q0 -15 -8 -27l-215 -299l215 -298q8 -12 8 -27q0 -20 -13.5 -33.5t-33.5 -13.5q-24 0 -38 20l-232 325q-9 13 -9 27zM372 465q0 15 10 28l231 325q15 20 39 20q20 0 33 -13.5t13 -33.5q0 -15 -8 -27
l-214 -299l214 -298q8 -12 8 -27q0 -20 -13.5 -33.5t-32.5 -13.5q-24 0 -39 20l-231 325q-9 13 -10 27z" />
    <glyph glyph-name="uni00AD" unicode="&#xad;" horiz-adv-x="651" 
d="M47 465.5q0 19.5 13 33t33 13.5h466q20 0 33 -13.5t13 -33t-13.5 -33t-32.5 -13.5h-466q-20 0 -33 13.5t-13 33z" />
    <glyph glyph-name="registered" unicode="&#xae;" horiz-adv-x="1582" 
d="M93 837.5q0 142.5 55.5 271.5t149 222.5t222.5 149t271.5 55.5t271.5 -55.5t222.5 -149t148.5 -222.5t55 -271.5t-55 -271t-148.5 -222.5t-222.5 -149t-271.5 -55t-271.5 55t-222.5 149t-149 222.5t-55.5 271zM186 838q0 -123 48 -235t129 -193t193 -129t235 -48
t235.5 48t193 129t128.5 193t48 235t-48 235t-128.5 193t-193 129t-235.5 48t-235 -48t-193 -129t-129 -193t-48 -235zM512 419v838q0 20 13.5 33t33.5 13h279q97 0 165 -68t68 -164v-94q0 -82 -51 -145t-129 -82l174 -309q6 -9 6 -22q0 -20 -13.5 -33.5t-33.5 -13.5
q-26 0 -41 25l-195 348h-183v-326q0 -20 -13.5 -33.5t-33 -13.5t-33 13.5t-13.5 33.5zM605 838h233q58 0 98.5 41t40.5 98v94q0 58 -40.5 98.5t-98.5 40.5h-233v-372z" />
    <glyph glyph-name="acute" unicode="&#xb4;" horiz-adv-x="279" 
d="M47 1164q0 9 4 20l47 93q13 26 42 26q20 0 33 -13.5t13 -32.5q0 -9 -4 -21l-47 -93q-13 -26 -42 -26q-20 0 -33 13.5t-13 33.5z" />
    <glyph glyph-name="cedilla" unicode="&#xb8;" horiz-adv-x="279" 
d="M47 -140q0 9 4 21l60 119h104l-80 -160q-13 -26 -42 -26q-20 0 -33 13.5t-13 32.5z" />
    <glyph glyph-name="guillemotright" unicode="&#xbb;" horiz-adv-x="791" 
d="M93 140q0 15 8 27l215 298l-215 299q-8 12 -8 27q0 20 13.5 33.5t33.5 13.5q24 0 38 -20l232 -325q9 -13 9 -28t-9 -27l-232 -325q-14 -20 -38 -20q-20 0 -33.5 13.5t-13.5 33.5zM372 140q0 15 9 27l214 298l-214 299q-8 12 -9 27q0 20 13.5 33.5t33.5 13.5q24 0 38 -20
l232 -325q9 -13 9 -28t-9 -27l-232 -325q-14 -20 -38 -20q-20 0 -33.5 13.5t-13.5 33.5z" />
    <glyph glyph-name="circumflex" unicode="&#x2c6;" horiz-adv-x="465" 
d="M93 1164q0 19 14 32l93 93q14 14 32.5 14t32.5 -14l93 -93q14 -14 14 -32q0 -20 -13.5 -33.5t-32.5 -13.5t-33 14l-60 60l-61 -60q-14 -14 -32 -14q-20 0 -33.5 13.5t-13.5 33.5z" />
    <glyph glyph-name="ring" unicode="&#x2da;" horiz-adv-x="465" 
d="M93 1163.5q0 57.5 41 98.5t98.5 41t98.5 -41t41 -98.5t-41 -98.5t-98.5 -41t-98.5 41t-41 98.5zM186 1163.5q0 -19.5 13.5 -33t33 -13.5t33 13.5t13.5 33t-13.5 33t-33 13.5t-33 -13.5t-13.5 -33z" />
    <glyph glyph-name="tilde" unicode="&#x2dc;" horiz-adv-x="558" 
d="M93 1233q0 25 22 40q45 30 94 30q53 0 98 -32q19 -14 42 -14t42 14q12 9 28 9q20 0 33 -13.5t13 -33.5q0 -26 -20 -39q-43 -31 -96 -30.5t-98 32.5q-19 14 -42 14t-41 -14q-12 -9 -28 -9q-20 0 -33.5 13.5t-13.5 32.5z" />
    <glyph glyph-name="uni0400" unicode="&#x400;" horiz-adv-x="726" 
d="M93 47v1210q0 20 13.5 33t33.5 13h465q20 0 33.5 -13.5t13.5 -33t-13.5 -33t-33.5 -13.5h-419v-465h233q20 0 33 -13.5t13 -33t-13.5 -33t-32.5 -13.5h-233v-559h419q20 0 33.5 -13.5t13.5 -33t-13.5 -33t-33.5 -13.5h-465q-20 0 -33.5 13.5t-13.5 33.5zM279 1536
q0 20 13.5 33t33.5 13q29 0 42 -26l46 -93q5 -11 5 -20q0 -20 -13.5 -33.5t-33.5 -13.5q-29 0 -42 26l-46 93q-5 11 -5 21z" />
    <glyph glyph-name="afii10023" unicode="&#x401;" horiz-adv-x="726" 
d="M93 47v1210q0 20 13.5 33t33.5 13h465q20 0 33.5 -13.5t13.5 -33t-13.5 -33t-33.5 -13.5h-419v-465h233q20 0 33 -13.5t13 -33t-13.5 -33t-32.5 -13.5h-233v-559h419q20 0 33.5 -13.5t13.5 -33t-13.5 -33t-33.5 -13.5h-465q-20 0 -33.5 13.5t-13.5 33.5zM186 1535.5
q0 19.5 13.5 33t33 13.5t33 -13.5t13.5 -33t-13.5 -33t-33 -13.5t-33 13.5t-13.5 33zM465 1535.5q0 19.5 13.5 33t33 13.5t33 -13.5t13.5 -33t-13.5 -33t-33 -13.5t-33 13.5t-13.5 33z" />
    <glyph glyph-name="afii10051" unicode="&#x402;" horiz-adv-x="1051" 
d="M47 1256.5q0 19.5 13 33t33 13.5h559q20 0 33 -13.5t13 -33t-13.5 -33t-32.5 -13.5h-233v-465h279q115 0 197 -82t82 -198v-186q0 -115 -81.5 -197t-197.5 -82h-46q-20 0 -33.5 13.5t-13.5 33t13.5 33t33.5 13.5h46q76 0 131 55t55 131v186q0 76 -54.5 131.5t-131.5 55.5
h-279v-605q0 -20 -13.5 -33.5t-33 -13.5t-33 13.5t-13.5 33.5v1163h-233q-20 0 -33 13.5t-13 33z" />
    <glyph glyph-name="afii10052" unicode="&#x403;" horiz-adv-x="698" 
d="M93 47v1210q0 20 13.5 33t33.5 13h465q20 0 33.5 -13.5t13.5 -33t-13.5 -33t-33.5 -13.5h-419v-1163q0 -20 -13.5 -33.5t-33 -13.5t-33 13.5t-13.5 33.5zM280 1443q0 9 4 20l47 93q13 26 42 26q20 0 33 -13.5t13 -32.5q0 -9 -4 -21l-47 -93q-13 -26 -42 -26
q-20 0 -33 13.5t-13 33.5z" />
    <glyph glyph-name="afii10053" unicode="&#x404;" horiz-adv-x="819" 
d="M93 326v651q0 135 95.5 230.5t230.5 95.5h279q20 0 33.5 -13.5t13.5 -33t-13.5 -33t-33.5 -13.5h-279q-97 0 -165 -68t-68 -165v-232h326q20 0 33.5 -13.5t13.5 -33t-13.5 -33t-33.5 -13.5h-326v-326q0 -97 68 -165t165 -68h279q20 0 33.5 -13.5t13.5 -33t-13.5 -33
t-33.5 -13.5h-279q-135 0 -230.5 95.5t-95.5 230.5z" />
    <glyph glyph-name="afii10054" unicode="&#x405;" horiz-adv-x="791" 
d="M74 93q0 20 13.5 33.5t33.5 13.5q19 0 33 -14q61 -61 246 -61q121 0 182 56q51 47 51 130q0 66 -42 118l-463 567q-54 67 -54 153q0 108 81 174q81 68 231 68q210 0 298 -88q14 -14 14 -33q0 -20 -13.5 -33t-32.5 -13t-33 14q-26 26 -87 43t-146 17q-115 0 -173 -46
q-46 -36 -45 -103q0 -51 33 -94l463 -567q62 -77 62 -177q0 -123 -81 -198q-87 -81 -245 -81q-111 0 -186.5 19t-125.5 70q-14 14 -14 32z" />
    <glyph glyph-name="afii10055" unicode="&#x406;" horiz-adv-x="279" 
d="M93 47v1210q0 20 13.5 33t33 13t33 -13.5t13.5 -32.5v-1210q0 -20 -13.5 -33.5t-33 -13.5t-33 13.5t-13.5 33.5z" />
    <glyph glyph-name="afii10056" unicode="&#x407;" horiz-adv-x="465" 
d="M46 1535.5q0 19.5 13.5 33t33 13.5t33 -13.5t13.5 -33t-13.5 -33t-33 -13.5t-33 13.5t-13.5 33zM186 47v1210q0 20 13.5 33t33 13t33 -13.5t13.5 -32.5v-1210q0 -20 -13.5 -33.5t-33 -13.5t-33 13.5t-13.5 33.5zM325 1535.5q0 19.5 13.5 33t33 13.5t33 -13.5t13.5 -33
t-13.5 -33t-33 -13.5t-33 13.5t-13.5 33z" />
    <glyph glyph-name="afii10057" unicode="&#x408;" horiz-adv-x="595" 
d="M47 46.5q0 19.5 13.5 33t32.5 13.5h93q97 0 165 68t68 165v931q0 20 13.5 33t33 13t33 -13.5t13.5 -32.5v-931q0 -135 -95.5 -230.5t-230.5 -95.5h-93q-20 0 -33 13.5t-13 33z" />
    <glyph glyph-name="afii10058" unicode="&#x409;" horiz-adv-x="1321" 
d="M47 47v11l289 1210q4 16 16.5 25.5t29.5 9.5h270q20 0 33 -13.5t13 -32.5v-512h186q155 0 264 -109t109 -263.5t-109 -263.5t-264 -109h-232q-20 0 -33.5 13.5t-13.5 33.5v1163h-187l-279 -1175q-4 -16 -16.5 -25.5t-29.5 -9.5q-20 0 -33 13.5t-13 33.5zM698 93h186
q115 0 197.5 82t82.5 197.5t-82 197.5t-198 82h-186v-559z" />
    <glyph glyph-name="afii10059" unicode="&#x40a;" horiz-adv-x="1368" 
d="M93 47v1210q0 20 13.5 33t33 13t33 -13.5t13.5 -32.5v-512h466v512q0 20 13.5 33t33 13t33 -13.5t13.5 -32.5v-512h186q155 0 263.5 -109t108.5 -263.5t-109 -263.5t-263 -109h-233q-20 0 -33 13.5t-13 33.5v605h-466v-605q0 -20 -13.5 -33.5t-33 -13.5t-33 13.5
t-13.5 33.5zM745 93h186q115 0 197 82t82 197.5t-82 197.5t-197 82h-186v-559z" />
    <glyph glyph-name="afii10060" unicode="&#x40b;" horiz-adv-x="1051" 
d="M47 1256.5q0 19.5 13 33t33 13.5h559q20 0 33 -13.5t13 -33t-13.5 -33t-32.5 -13.5h-233v-465h279q115 0 197 -82t82 -198v-418q0 -20 -13.5 -33.5t-33 -13.5t-33 13.5t-13.5 33.5v418q0 76 -54.5 131.5t-131.5 55.5h-279v-605q0 -20 -13.5 -33.5t-33 -13.5t-33 13.5
t-13.5 33.5v1163h-233q-20 0 -33 13.5t-13 33z" />
    <glyph glyph-name="afii10061" unicode="&#x40c;" horiz-adv-x="819" 
d="M93 47v1210q0 20 13.5 33t33 13t33 -13.5t13.5 -32.5v-605l475 633q14 19 37 18q20 0 33.5 -13.5t13.5 -32.5q0 -16 -10 -28l-359 -480l363 -680q6 -9 6 -22q0 -20 -13.5 -33.5t-33.5 -13.5q-29 0 -41 24l-342 643l-129 -171v-449q0 -20 -13.5 -33.5t-33 -13.5t-33 13.5
t-13.5 33.5zM326 1443q0 9 4 20l47 93q13 26 42 26q20 0 33 -13.5t13 -32.5q0 -9 -4 -21l-47 -93q-13 -26 -42 -26q-20 0 -33 13.5t-13 33.5z" />
    <glyph glyph-name="uni040D" unicode="&#x40d;" 
d="M93 47v1210q0 20 13.5 33t33 13t33 -13.5t13.5 -32.5v-998l470 1017q12 27 42 27q20 0 33.5 -13.5t13.5 -32.5v-1210q0 -20 -13.5 -33.5t-33 -13.5t-33 13.5t-13.5 33.5v997l-470 -1017q-12 -27 -42 -27q-20 0 -33.5 13.5t-13.5 33.5zM326 1536q0 20 13.5 33t33.5 13
q29 0 42 -26l46 -93q5 -11 5 -20q0 -20 -13.5 -33.5t-33.5 -13.5q-29 0 -42 26l-46 93q-5 11 -5 21z" />
    <glyph glyph-name="afii10062" unicode="&#x40e;" 
d="M93 931v326q0 20 13.5 33t33 13t33 -13.5t13.5 -32.5v-326q0 -115 82 -197t197 -82h187v605q0 20 13.5 33t33 13t33 -13.5t13.5 -32.5v-978q0 -115 -82 -197t-198 -82h-232q-20 0 -33.5 13.5t-13.5 33t13.5 33t33.5 13.5h232q76 0 131.5 55t55.5 131v280h-187
q-155 0 -263.5 108.5t-108.5 263.5zM279 1442.5q0 19.5 13.5 33t33.5 13.5h186q20 0 33.5 -13.5t13.5 -33t-13.5 -33t-33.5 -13.5h-186q-20 0 -33.5 13.5t-13.5 33z" />
    <glyph glyph-name="afii10145" unicode="&#x40f;" 
d="M93 47v1210q0 20 13.5 33t33 13t33 -13.5t13.5 -32.5v-1164h466v1164q0 20 13.5 33t33 13t33 -13.5t13.5 -32.5v-1210q0 -20 -13.5 -33.5t-33.5 -13.5h-233v-186q0 -20 -13.5 -33.5t-33 -13.5t-33 13.5t-13.5 33.5v186h-232q-20 0 -33.5 13.5t-13.5 33.5z" />
    <glyph glyph-name="afii10017" unicode="&#x410;" 
d="M47 47q0 5 1 12l326 1210q5 15 17 24.5t28 9.5t28.5 -9.5t17.5 -25.5l324 -1209q2 -7 2 -12q0 -20 -13.5 -33.5t-32.5 -13.5q-16 0 -28 10t-17 24l-91 338h-380l-91 -338q-5 -15 -17 -24.5t-28 -9.5q-20 0 -33 13.5t-13 33.5zM254 465h330l-165 613z" />
    <glyph glyph-name="afii10018" unicode="&#x411;" horiz-adv-x="809" 
d="M93 47v1210q0 20 13.5 33t33.5 13h465q20 0 33.5 -13.5t13.5 -33t-13.5 -33t-33.5 -13.5h-419v-465h186q155 0 264 -109t109 -263.5t-109 -263.5t-264 -109h-232q-20 0 -33.5 13.5t-13.5 33.5zM186 93h186q115 0 197.5 82t82.5 197.5t-82 197.5t-198 82h-186v-559z" />
    <glyph glyph-name="afii10019" unicode="&#x412;" horiz-adv-x="809" 
d="M93 47v1210q0 20 13.5 33t33.5 13h232q135 0 230.5 -95.5t95.5 -230.5q0 -86 -41 -158.5t-111 -116.5q90 -47 144.5 -135.5t54.5 -194.5q0 -155 -109 -263.5t-264 -108.5h-232q-20 0 -33.5 13.5t-13.5 33.5zM186 93h186q115 0 197.5 82t82.5 197.5t-82 197.5t-198 82
h-186v-559zM186 745h186q97 0 165 68t68 164.5t-68 164.5t-165 68h-186v-465z" />
    <glyph glyph-name="afii10020" unicode="&#x413;" horiz-adv-x="698" 
d="M93 47v1210q0 20 13.5 33t33.5 13h465q20 0 33.5 -13.5t13.5 -33t-13.5 -33t-33.5 -13.5h-419v-1163q0 -20 -13.5 -33.5t-33 -13.5t-33 13.5t-13.5 33.5z" />
    <glyph glyph-name="afii10021" unicode="&#x414;" horiz-adv-x="791" 
d="M19 -47v94q0 20 13.5 33t32.5 13h53l181 1171q3 17 15 28t30 11h280q20 0 33 -13.5t13 -32.5v-1164h47q20 0 33 -13.5t13 -32.5v-94q0 -20 -13.5 -33t-33 -13t-33 13.5t-13.5 32.5v47h-558v-47q0 -20 -13.5 -33t-33 -13t-33 13.5t-13.5 32.5zM212 93h365v1117h-193z" />
    <glyph glyph-name="afii10022" unicode="&#x415;" horiz-adv-x="726" 
d="M93 47v1210q0 20 13.5 33t33.5 13h465q20 0 33.5 -13.5t13.5 -33t-13.5 -33t-33.5 -13.5h-419v-465h233q20 0 33 -13.5t13 -33t-13.5 -33t-32.5 -13.5h-233v-559h419q20 0 33.5 -13.5t13.5 -33t-13.5 -33t-33.5 -13.5h-465q-20 0 -33.5 13.5t-13.5 33.5z" />
    <glyph glyph-name="afii10024" unicode="&#x416;" horiz-adv-x="986" 
d="M74 47q0 9 5 20l312 624l-310 542q-7 11 -7 24q0 20 13.5 33t33.5 13q26 0 40 -23l286 -500v477q0 20 13.5 33t33 13t33 -13.5t13.5 -32.5v-477l286 500q14 23 40 23q20 0 33 -13.5t13 -32.5q0 -12 -6 -24l-310 -542l312 -624q5 -11 4 -20q0 -20 -13.5 -33.5t-32.5 -13.5
q-29 0 -42 26l-284 568v-547q0 -20 -13.5 -33.5t-33 -13.5t-33 13.5t-13.5 33.5v547l-284 -568q-13 -26 -42 -26q-20 0 -33.5 13.5t-13.5 33.5z" />
    <glyph glyph-name="afii10025" unicode="&#x417;" horiz-adv-x="781" 
d="M65 140q0 20 13.5 33t33.5 13q22 0 35 -16q49 -58 81 -74q57 -31 163 -31q102 0 163 66q70 76 70 227t-70 228q-61 66 -163 66h-93q-20 0 -33.5 13.5t-13.5 33t13.5 33t33.5 13.5h93q89 0 143 59q61 68 61.5 187.5t-61.5 187.5q-54 60 -143 59q-80 0 -124.5 -15
t-75.5 -45q-14 -14 -33 -14q-20 0 -33 13.5t-13 32.5t14 33q86 88 265 88q130 0 212 -90q86 -95 86 -249.5t-86 -249.5q-22 -24 -46 -40q37 -21 66 -53q94 -102 94 -290.5t-94 -290.5q-88 -96 -232 -96q-131 0 -208 42q-22 12 -44 30t-32.5 30.5t-30.5 34.5q-11 12 -11 31z
" />
    <glyph glyph-name="afii10026" unicode="&#x418;" 
d="M93 47v1210q0 20 13.5 33t33 13t33 -13.5t13.5 -32.5v-998l470 1017q12 27 42 27q20 0 33.5 -13.5t13.5 -32.5v-1210q0 -20 -13.5 -33.5t-33 -13.5t-33 13.5t-13.5 33.5v997l-470 -1017q-12 -27 -42 -27q-20 0 -33.5 13.5t-13.5 33.5z" />
    <glyph glyph-name="afii10027" unicode="&#x419;" 
d="M93 47v1210q0 20 13.5 33t33 13t33 -13.5t13.5 -32.5v-998l470 1017q12 27 42 27q20 0 33.5 -13.5t13.5 -32.5v-1210q0 -20 -13.5 -33.5t-33 -13.5t-33 13.5t-13.5 33.5v997l-470 -1017q-12 -27 -42 -27q-20 0 -33.5 13.5t-13.5 33.5zM279 1442.5q0 19.5 13.5 33
t33.5 13.5h186q20 0 33.5 -13.5t13.5 -33t-13.5 -33t-33.5 -13.5h-186q-20 0 -33.5 13.5t-13.5 33z" />
    <glyph glyph-name="afii10028" unicode="&#x41a;" horiz-adv-x="819" 
d="M93 47v1210q0 20 13.5 33t33 13t33 -13.5t13.5 -32.5v-605l475 633q14 19 37 18q20 0 33.5 -13.5t13.5 -32.5q0 -16 -10 -28l-359 -480l363 -680q6 -9 6 -22q0 -20 -13.5 -33.5t-33.5 -13.5q-29 0 -41 24l-342 643l-129 -171v-449q0 -20 -13.5 -33.5t-33 -13.5t-33 13.5
t-13.5 33.5z" />
    <glyph glyph-name="afii10029" unicode="&#x41b;" horiz-adv-x="791" 
d="M47 47v11l289 1210q4 16 16.5 25.5t29.5 9.5h270q20 0 33 -13.5t13 -32.5v-1210q0 -20 -13.5 -33.5t-33 -13.5t-33 13.5t-13.5 33.5v1163h-187l-279 -1175q-4 -16 -16.5 -25.5t-29.5 -9.5q-20 0 -33 13.5t-13 33.5z" />
    <glyph glyph-name="afii10030" unicode="&#x41c;" horiz-adv-x="1024" 
d="M93 47v1210q0 20 13.5 33t33.5 13q27 0 40 -23l332 -581l332 581q13 23 40 23q20 0 33.5 -13.5t13.5 -32.5v-1210q0 -20 -13.5 -33.5t-33 -13.5t-33 13.5t-13.5 33.5v1035l-286 -500q-13 -23 -40 -23t-41 24l-285 499v-1035q0 -20 -13.5 -33.5t-33 -13.5t-33 13.5
t-13.5 33.5z" />
    <glyph glyph-name="afii10031" unicode="&#x41d;" 
d="M93 47v1210q0 20 13.5 33t33 13t33 -13.5t13.5 -32.5v-512h466v512q0 20 13.5 33t33 13t33 -13.5t13.5 -32.5v-1210q0 -20 -13.5 -33.5t-33 -13.5t-33 13.5t-13.5 33.5v605h-466v-605q0 -20 -13.5 -33.5t-33 -13.5t-33 13.5t-13.5 33.5z" />
    <glyph glyph-name="afii10032" unicode="&#x41e;" horiz-adv-x="819" 
d="M84 298v707q0 135 95.5 230.5t230.5 95.5t230 -95.5t95 -230.5v-707q0 -135 -95 -230.5t-230 -95.5t-230.5 95.5t-95.5 230.5zM177 298q0 -97 68 -165t164.5 -68t164.5 68t68 165v707q0 97 -68 165t-164.5 68t-164.5 -68t-68 -165v-707z" />
    <glyph glyph-name="afii10033" unicode="&#x41f;" 
d="M93 47v1210q0 20 13.5 33t33.5 13h558q20 0 33.5 -13.5t13.5 -32.5v-1210q0 -20 -13.5 -33.5t-33 -13.5t-33 13.5t-13.5 33.5v1163h-466v-1163q0 -20 -13.5 -33.5t-33 -13.5t-33 13.5t-13.5 33.5z" />
    <glyph glyph-name="afii10034" unicode="&#x420;" horiz-adv-x="809" 
d="M93 47v1210q0 20 13.5 33t33.5 13h232q155 0 264 -109t109 -263.5t-109 -263t-264 -108.5h-186v-512q0 -20 -13.5 -33.5t-33 -13.5t-33 13.5t-13.5 33.5zM186 652h186q115 0 197.5 81.5t82.5 197t-82 197.5t-198 82h-186v-558z" />
    <glyph glyph-name="afii10035" unicode="&#x421;" horiz-adv-x="707" 
d="M84 326v651q0 135 95.5 230.5t230.5 95.5h186q20 0 33 -13.5t13 -33t-13.5 -33t-32.5 -13.5h-186q-97 0 -165 -68t-68 -165v-651q0 -97 68 -165t165 -68h186q20 0 33 -13.5t13 -33t-13.5 -33t-32.5 -13.5h-186q-135 0 -230.5 95.5t-95.5 230.5z" />
    <glyph glyph-name="afii10036" unicode="&#x422;" horiz-adv-x="781" 
d="M65 1256.5q0 19.5 13.5 33t33.5 13.5h558q20 0 33.5 -13.5t13.5 -33t-13.5 -33t-33.5 -13.5h-232v-1163q0 -20 -13.5 -33.5t-33.5 -13.5t-33.5 13.5t-13.5 33.5v1163h-232q-20 0 -33.5 13.5t-13.5 33z" />
    <glyph glyph-name="afii10037" unicode="&#x423;" horiz-adv-x="828" 
d="M84 931v326q0 20 13.5 33t33 13t33 -13.5t13.5 -32.5v-326q0 -115 82 -197t197 -82h186v605q0 20 13.5 33t33 13t33 -13.5t13.5 -32.5v-978q0 -115 -81.5 -197t-197.5 -82h-233q-20 0 -33 13.5t-13 33t13.5 33t32.5 13.5h233q76 0 131 55t55 131v280h-186
q-155 0 -263.5 108.5t-108.5 263.5z" />
    <glyph glyph-name="afii10038" unicode="&#x424;" horiz-adv-x="1117" 
d="M47 698.5q0 113.5 55.5 210t152.5 152.5t210 56h47v140q0 20 13.5 33t33 13t33 -13.5t13.5 -32.5v-140h47q114 0 210.5 -56t152.5 -152.5t56 -210t-56 -210.5t-153 -153t-210 -56h-47v-232q0 -20 -13.5 -33.5t-33 -13.5t-33 13.5t-13.5 33.5v232h-47q-114 0 -210.5 56
t-152 153t-55.5 210.5zM140 698q0 -135 95 -230.5t230 -95.5h47v652h-47q-135 0 -230 -95.5t-95 -230.5zM605 372h47q135 0 230 95.5t95 230.5t-95 230.5t-230 95.5h-47v-652z" />
    <glyph glyph-name="afii10039" unicode="&#x425;" horiz-adv-x="893" 
d="M74 47q0 13 6 22l314 583l-314 582q-6 9 -6 23q0 20 13.5 33t33.5 13q29 0 41 -24l285 -529l285 529q12 24 41 24q20 0 33 -13.5t13 -32.5q0 -13 -5 -23l-314 -582l314 -583q6 -9 5 -22q0 -20 -13.5 -33.5t-32.5 -13.5q-29 0 -41 24l-285 529l-285 -529q-12 -24 -41 -24
q-20 0 -33.5 13.5t-13.5 33.5z" />
    <glyph glyph-name="afii10040" unicode="&#x426;" horiz-adv-x="865" 
d="M93 47v1210q0 20 13.5 33t33 13t33 -13.5t13.5 -32.5v-1164h466v1164q0 20 13.5 33t33 13t33 -13.5t13.5 -32.5v-1164h46q20 0 33.5 -13.5t13.5 -32.5v-187q0 -20 -13.5 -33t-33 -13t-33 13.5t-13.5 32.5v140h-605q-20 0 -33.5 13.5t-13.5 33.5z" />
    <glyph glyph-name="afii10041" unicode="&#x427;" horiz-adv-x="828" 
d="M84 931v326q0 20 13.5 33t33 13t33 -13.5t13.5 -32.5v-326q0 -115 82 -197t197 -82h186v605q0 20 13.5 33t33 13t33 -13.5t13.5 -32.5v-1210q0 -20 -13.5 -33.5t-33 -13.5t-33 13.5t-13.5 33.5v512h-186q-155 0 -263.5 108.5t-108.5 263.5z" />
    <glyph glyph-name="afii10042" unicode="&#x428;" horiz-adv-x="1024" 
d="M93 47v1210q0 20 13.5 33t33 13t33 -13.5t13.5 -32.5v-1164h279v1164q0 20 13.5 33t33.5 13t33.5 -13.5t13.5 -32.5v-1164h279v1164q0 20 13.5 33t33 13t33 -13.5t13.5 -32.5v-1210q0 -20 -13.5 -33.5t-33.5 -13.5h-744q-20 0 -33.5 13.5t-13.5 33.5z" />
    <glyph glyph-name="afii10043" unicode="&#x429;" horiz-adv-x="1051" 
d="M93 47v1210q0 20 13.5 33t33 13t33 -13.5t13.5 -32.5v-1164h279v1164q0 20 13.5 33t33.5 13t33.5 -13.5t13.5 -32.5v-1164h279v1164q0 20 13.5 33t33 13t33 -13.5t13.5 -32.5v-1164h46q20 0 33.5 -13.5t13.5 -32.5v-187q0 -20 -13.5 -33t-33 -13t-33 13.5t-13.5 32.5v140
h-791q-20 0 -33.5 13.5t-13.5 33.5z" />
    <glyph glyph-name="afii10044" unicode="&#x42a;" horiz-adv-x="930" 
d="M28 1256.5q0 19.5 13 33t33 13.5h187q20 0 33 -13.5t13 -32.5v-512h186q155 0 264 -109t109 -263.5t-109 -263.5t-264 -109h-232q-20 0 -33.5 13.5t-13.5 33.5v1163h-140q-20 0 -33 13.5t-13 33zM307 93h186q115 0 197.5 82t82.5 197.5t-82 197.5t-198 82h-186v-559z" />
    <glyph glyph-name="afii10045" unicode="&#x42b;" horiz-adv-x="930" 
d="M93 47v1210q0 20 13.5 33t33 13t33 -13.5t13.5 -32.5v-512h93q155 0 264 -109t109 -263.5t-109 -263.5t-264 -109h-139q-20 0 -33.5 13.5t-13.5 33.5zM186 93h93q115 0 197.5 82t82.5 197.5t-82 197.5t-198 82h-93v-559zM745 47v1210q0 20 13.5 33t33 13t33 -13.5
t13.5 -32.5v-1210q0 -20 -13.5 -33.5t-33 -13.5t-33 13.5t-13.5 33.5z" />
    <glyph glyph-name="afii10046" unicode="&#x42c;" horiz-adv-x="809" 
d="M93 47v1210q0 20 13.5 33t33 13t33 -13.5t13.5 -32.5v-512h186q155 0 264 -109t109 -263.5t-109 -263.5t-264 -109h-232q-20 0 -33.5 13.5t-13.5 33.5zM186 93h186q115 0 197.5 82t82.5 197.5t-82 197.5t-198 82h-186v-559z" />
    <glyph glyph-name="afii10047" unicode="&#x42d;" horiz-adv-x="809" 
d="M74 46.5q0 19.5 13.5 33t33.5 13.5h279q97 0 165 68t68 165v326h-326q-20 0 -33 13.5t-13 33t13.5 33t32.5 13.5h326v232q0 97 -68 165t-165 68h-279q-20 0 -33.5 13.5t-13.5 33t13.5 33t33.5 13.5h279q135 0 230.5 -95.5t95.5 -230.5v-651q0 -135 -95.5 -230.5
t-230.5 -95.5h-279q-20 0 -33.5 13.5t-13.5 33z" />
    <glyph glyph-name="afii10048" unicode="&#x42e;" horiz-adv-x="921" 
d="M93 47v1210q0 20 13.5 33t33 13t33 -13.5t13.5 -32.5v-512h93v307q0 115 82 197t197.5 82t197.5 -82t82 -197v-801q0 -115 -82 -197t-197.5 -82t-197.5 82t-82 197v401h-93v-605q0 -20 -13.5 -33.5t-33 -13.5t-33 13.5t-13.5 33.5zM372 251q0 -76 55 -131t131.5 -55
t131.5 55t55 131v801q0 76 -55 131t-131.5 55t-131.5 -55t-55 -131v-801z" />
    <glyph glyph-name="afii10049" unicode="&#x42f;" horiz-adv-x="819" 
d="M74 47q0 12 7 23l290 496q-128 27 -212.5 129t-84.5 236q0 155 109 263.5t264 108.5h233q20 0 33 -13.5t13 -32.5v-1210q0 -20 -13.5 -33.5t-33 -13.5t-33 13.5t-13.5 33.5v512h-159l-313 -536q-14 -23 -40 -23q-20 0 -33.5 13.5t-13.5 33.5zM168 930.5
q0 -115.5 81.5 -197t197.5 -81.5h186v558h-186q-115 0 -197 -82t-82 -197.5z" />
    <glyph glyph-name="afii10065" unicode="&#x430;" horiz-adv-x="763" 
d="M84 261v437q0 97 68 165t165 68h279q20 0 33 -13.5t13 -33.5v-744q0 -20 13.5 -33.5t33 -13.5t33 -13.5t13.5 -33t-13.5 -33t-32.5 -13.5q-38 0 -70.5 19t-50.5 52q-83 -89 -205 -90q-115 0 -197 82t-82 198zM177 261q0 -76 55 -131.5t131 -55.5t131 55t55 132v577h-232
q-58 0 -99 -41t-41 -99v-437z" />
    <glyph glyph-name="afii10066" unicode="&#x431;" horiz-adv-x="726" 
d="M84 261v409q0 114 79 195.5t193 84.5l-259 275q-13 15 -13 32q0 20 13 33t33 13h466q20 0 33 -13.5t13 -33t-13.5 -33t-32.5 -13.5h-358l328 -348q76 -81 76 -192v-409q0 -115 -82 -197.5t-197 -82.5t-197 82t-82 198zM177 261q0 -76 55 -131.5t131 -55.5t131 55t55 132
v409q0 76 -55 131t-131 55t-131 -54.5t-55 -131.5v-409z" />
    <glyph glyph-name="afii10067" unicode="&#x432;" horiz-adv-x="735" 
d="M93 261v875q0 76 55 131t131.5 55t131 -55t54.5 -131q0 -69 -44 -121l-56 -65h7q115 0 197.5 -82t82.5 -198v-409q0 -115 -82 -197.5t-197.5 -82.5t-197.5 82t-82 198zM186 261q0 -76 55 -131.5t131.5 -55.5t131.5 55t55 132v409q0 76 -55 131t-131.5 55t-131.5 -54.5
t-55 -131.5v-409zM186 883l164 192q22 25 22 61q0 38 -27.5 65.5t-65.5 27.5t-65.5 -27.5t-27.5 -65.5v-253z" />
    <glyph glyph-name="afii10068" unicode="&#x433;" horiz-adv-x="698" 
d="M65 214q0 114 90 183l333 259q43 34 43 89q0 48 -35 75q-47 36 -142 36q-78 0 -121 -12t-70 -39q-14 -14 -33 -14q-20 0 -33 13.5t-13 33.5q0 19 14 32q78 80 256 80q128 0 200 -56q70 -55 70 -149q0 -101 -79 -162l-333 -259q-54 -42 -54 -110q0 -61 38 -97
q47 -43 148 -43q149 0 201 52q14 14 32 14q20 0 33.5 -13.5t13.5 -33.5q0 -19 -14 -32q-78 -79 -266 -80q-136 0 -210 67q-69 62 -69 166z" />
    <glyph glyph-name="afii10069" unicode="&#x434;" horiz-adv-x="735" 
d="M84 261v437q0 97 68 165t165 68h232v186q0 38 -27.5 65.5t-65.5 27.5h-233q-20 0 -33 13.5t-13 33t13 33t33 13.5h233q76 0 131 -55t55 -131v-856q0 -115 -82 -197.5t-197 -82.5t-197 82t-82 198zM177 261q0 -76 55 -131.5t131 -55.5t131 55t55 132v577h-232
q-58 0 -99 -41t-41 -99v-437z" />
    <glyph glyph-name="afii10070" unicode="&#x435;" horiz-adv-x="726" 
d="M84 233v437q0 115 82 197.5t197 82.5t197 -82t82 -198v-205q0 -20 -13.5 -33t-32.5 -13h-419v-186q0 -58 41 -99t99 -41h279q20 0 33 -13.5t13 -33t-13.5 -33t-32.5 -13.5h-279q-97 0 -165 68t-68 165zM177 512h372v158q0 76 -55 131t-131 55t-131 -54.5t-55 -131.5v-158
z" />
    <glyph glyph-name="afii10072" unicode="&#x436;" horiz-adv-x="893" 
d="M74 47q0 13 8 25l250 393l-250 394q-7 12 -8 25q0 20 13.5 33.5t33.5 13.5q25 0 39 -22l240 -377v352q0 20 13.5 33.5t33 13.5t33 -13.5t13.5 -33.5v-352l241 377q14 21 39 22q20 0 33 -13.5t13 -33.5q0 -13 -7 -25l-251 -394l251 -393q7 -12 7 -25q0 -20 -13.5 -33.5
t-32.5 -13.5q-25 0 -39 21l-241 377v-351q0 -20 -13.5 -33.5t-33 -13.5t-33 13.5t-13.5 33.5v351l-240 -377q-14 -21 -39 -21q-20 0 -33.5 13.5t-13.5 33.5z" />
    <glyph glyph-name="afii10073" unicode="&#x437;" horiz-adv-x="633" 
d="M56 93q0 20 13.5 33.5t32.5 13.5q16 0 30 -12q39 -32 73 -43t98 -11q72 0 122 50.5t50 122t-50.5 122t-121.5 50.5h-14q-20 0 -33.5 13.5t-13.5 33t13.5 33t33.5 13.5h14q72 0 122 50.5t50 122t-50.5 121.5t-121.5 50t-121 -51q-14 -14 -33.5 -14t-33 13.5t-13.5 33
t13 32.5q78 80 187.5 80t187.5 -78t78 -188q0 -67 -31.5 -124.5t-84.5 -94.5q53 -36 84.5 -93.5t31.5 -124.5q0 -110 -78 -188t-187 -78q-139 0 -230 77q-17 14 -17 35z" />
    <glyph glyph-name="afii10074" unicode="&#x438;" horiz-adv-x="744" 
d="M93 233v651q0 20 13.5 33.5t33 13.5t33 -13.5t13.5 -33.5v-651q0 -58 41 -99t99 -41h233v791q0 20 13.5 33.5t33 13.5t33 -13.5t13.5 -33.5v-837q0 -20 -13.5 -33.5t-33.5 -13.5h-279q-97 0 -165 68t-68 165z" />
    <glyph glyph-name="afii10075" unicode="&#x439;" horiz-adv-x="744" 
d="M93 186v698q0 20 13.5 33.5t33 13.5t33 -13.5t13.5 -33.5v-698q0 -38 27.5 -65.5t65.5 -27.5h280v791q0 20 13.5 33.5t33 13.5t33 -13.5t13.5 -33.5v-837q0 -20 -13.5 -33.5t-33.5 -13.5h-326q-76 0 -131 55t-55 131zM233 1256.5q0 19.5 13 33t33 13.5h186
q20 0 33.5 -13.5t13.5 -33t-13.5 -33t-33.5 -13.5h-186q-20 0 -33 13.5t-13 33z" />
    <glyph glyph-name="afii10076" unicode="&#x43a;" horiz-adv-x="716" 
d="M93 47v837q0 20 13.5 33.5t33 13.5t33 -13.5t13.5 -33.5v-430l384 460q14 17 35 17q20 0 33.5 -13.5t13.5 -33.5q0 -16 -12 -29l-296 -356l299 -425q8 -11 9 -27q0 -20 -13.5 -33.5t-33.5 -13.5q-24 0 -38 20l-284 405l-97 -116v-262q0 -20 -13.5 -33.5t-33 -13.5
t-33 13.5t-13.5 33.5z" />
    <glyph glyph-name="afii10077" unicode="&#x43b;" horiz-adv-x="698" 
d="M47 47q0 5 1 12l233 837q5 15 17 25t28 10h233q20 0 33 -13.5t13 -33.5v-837q0 -20 -13.5 -33.5t-33 -13.5t-33 13.5t-13.5 33.5v791h-151l-223 -804q-5 -15 -17 -24.5t-28 -9.5q-20 0 -33 13.5t-13 33.5z" />
    <glyph glyph-name="afii10078" unicode="&#x43c;" 
d="M93 47v837q0 20 13.5 33.5t33.5 13.5q25 0 39 -21l240 -361l240 361q14 20 39 21q20 0 33.5 -13.5t13.5 -33.5v-837q0 -20 -13.5 -33.5t-33 -13.5t-33 13.5t-13.5 33.5v684l-194 -292q-14 -20 -39 -20t-39 20l-194 292v-684q0 -20 -13.5 -33.5t-33 -13.5t-33 13.5
t-13.5 33.5z" />
    <glyph glyph-name="afii10079" unicode="&#x43d;" horiz-adv-x="744" 
d="M93 47v837q0 20 13.5 33.5t33 13.5t33 -13.5t13.5 -33.5v-372h373v372q0 20 13.5 33.5t33 13.5t33 -13.5t13.5 -33.5v-837q0 -20 -13.5 -33.5t-33 -13.5t-33 13.5t-13.5 33.5v372h-373v-372q0 -20 -13.5 -33.5t-33 -13.5t-33 13.5t-13.5 33.5z" />
    <glyph glyph-name="afii10080" unicode="&#x43e;" horiz-adv-x="726" 
d="M84 261v409q0 115 82 197.5t197 82.5t197 -82t82 -198v-409q0 -115 -82 -197.5t-197 -82.5t-197 82t-82 198zM177 261q0 -76 55 -131.5t131 -55.5t131 55t55 132v409q0 76 -55 131t-131 55t-131 -54.5t-55 -131.5v-409z" />
    <glyph glyph-name="afii10081" unicode="&#x43f;" horiz-adv-x="744" 
d="M93 47v837q0 20 13.5 33.5t33.5 13.5h279q97 0 165 -68t68 -165v-651q0 -20 -13.5 -33.5t-33 -13.5t-33 13.5t-13.5 33.5v651q0 58 -41 99t-99 41h-233v-791q0 -20 -13.5 -33.5t-33 -13.5t-33 13.5t-13.5 33.5z" />
    <glyph glyph-name="afii10082" unicode="&#x440;" horiz-adv-x="735" 
d="M93 -326v1210q0 20 13.5 33.5t33.5 13.5h279q97 0 165 -68t68 -165v-465q0 -97 -68 -165t-165 -68h-233v-326q0 -20 -13.5 -33t-33 -13t-33 13.5t-13.5 32.5zM186 93h233q58 0 99 41t41 99v465q0 58 -41 99t-99 41h-233v-745z" />
    <glyph glyph-name="afii10083" unicode="&#x441;" horiz-adv-x="623" 
d="M84 233v465q0 97 68 165t165 68h186q20 0 33 -13.5t13 -33t-13.5 -33t-32.5 -13.5h-186q-58 0 -99 -41t-41 -99v-465q0 -58 41 -99t99 -41h186q20 0 33 -13.5t13 -33t-13.5 -33t-32.5 -13.5h-186q-97 0 -165 68t-68 165z" />
    <glyph glyph-name="afii10084" unicode="&#x442;" horiz-adv-x="1024" 
d="M93 47v837q0 20 13.5 33.5t33.5 13.5h558q97 0 165 -68t68 -165v-651q0 -20 -13.5 -33.5t-33 -13.5t-33 13.5t-13.5 33.5v651q0 58 -41 99t-99 41h-139v-791q0 -20 -13.5 -33.5t-33.5 -13.5t-33.5 13.5t-13.5 33.5v791h-279v-791q0 -20 -13.5 -33.5t-33 -13.5t-33 13.5
t-13.5 33.5z" />
    <glyph glyph-name="afii10085" unicode="&#x443;" horiz-adv-x="744" 
d="M93 233v651q0 20 13.5 33.5t33 13.5t33 -13.5t13.5 -33.5v-651q0 -58 41 -99t99 -41h233v791q0 20 13.5 33.5t33 13.5t33 -13.5t13.5 -33.5v-1070q0 -76 -55 -131t-132 -55h-279q-20 0 -33 13.5t-13 33t13.5 33t32.5 13.5h279q38 0 66 27.5t28 65.5v186h-233
q-97 0 -165 68t-68 165z" />
    <glyph glyph-name="afii10086" unicode="&#x444;" horiz-adv-x="986" 
d="M74 372v187q0 155 109 263.5t264 108.5v186q0 20 13.5 33.5t33 13.5t33 -13.5t13.5 -33.5v-186q155 0 263.5 -109t108.5 -263v-187q0 -155 -109 -263.5t-263 -108.5v-326q0 -20 -13.5 -33t-33 -13t-33 13.5t-13.5 32.5v326q-155 0 -264 109t-109 263zM168 372
q0 -115 81.5 -197t197.5 -82v745q-115 0 -197 -82t-82 -197v-187zM540 93q115 0 197 82t82 197v187q0 115 -82 197t-197 82v-745z" />
    <glyph glyph-name="afii10087" unicode="&#x445;" horiz-adv-x="707" 
d="M74 47q0 13 6 22l221 396l-221 397q-6 9 -6 22q0 20 13.5 33.5t33.5 13.5q26 0 41 -24l192 -346l192 346q15 24 40 24q20 0 33.5 -13.5t13.5 -33.5q0 -13 -6 -22l-220 -397l220 -396q6 -9 6 -22q0 -20 -13.5 -33.5t-33.5 -13.5q-26 0 -40 24l-192 346l-192 -346
q-15 -24 -41 -24q-20 0 -33.5 13.5t-13.5 33.5z" />
    <glyph glyph-name="afii10088" unicode="&#x446;" horiz-adv-x="772" 
d="M93 233v651q0 20 13.5 33.5t33 13.5t33 -13.5t13.5 -33.5v-651q0 -58 41 -99t99 -41h233v791q0 20 13.5 33.5t33 13.5t33 -13.5t13.5 -33.5v-791h46q20 0 33.5 -13.5t13.5 -32.5v-187q0 -20 -13.5 -33t-33 -13t-33 13.5t-13.5 32.5v140h-326q-97 0 -165 68t-68 165z" />
    <glyph glyph-name="afii10089" unicode="&#x447;" horiz-adv-x="735" 
d="M84 652v232q0 20 13.5 33.5t33 13.5t33 -13.5t13.5 -33.5v-232q0 -58 41 -99t99 -41h232v372q0 20 13.5 33.5t33 13.5t33 -13.5t13.5 -33.5v-837q0 -20 -13.5 -33.5t-33 -13.5t-33 13.5t-13.5 33.5v372h-232q-97 0 -165 68t-68 165z" />
    <glyph glyph-name="afii10090" unicode="&#x448;" horiz-adv-x="1024" 
d="M93 233v651q0 20 13.5 33.5t33 13.5t33 -13.5t13.5 -33.5v-651q0 -58 41 -99t99 -41h139v791q0 20 13.5 33.5t33.5 13.5t33.5 -13.5t13.5 -33.5v-791h279v791q0 20 13.5 33.5t33 13.5t33 -13.5t13.5 -33.5v-837q0 -20 -13.5 -33.5t-33.5 -13.5h-558q-97 0 -165 68
t-68 165z" />
    <glyph glyph-name="afii10091" unicode="&#x449;" horiz-adv-x="1051" 
d="M93 233v651q0 20 13.5 33.5t33 13.5t33 -13.5t13.5 -33.5v-651q0 -58 41 -99t99 -41h139v791q0 20 13.5 33.5t33.5 13.5t33.5 -13.5t13.5 -33.5v-791h279v791q0 20 13.5 33.5t33 13.5t33 -13.5t13.5 -33.5v-791h46q20 0 33.5 -13.5t13.5 -32.5v-187q0 -20 -13.5 -33
t-33 -13t-33 13.5t-13.5 32.5v140h-605q-97 0 -165 68t-68 165z" />
    <glyph glyph-name="afii10092" unicode="&#x44a;" horiz-adv-x="744" 
d="M28 884.5q0 19.5 13 33t33 13.5h94q20 0 33 -13.5t13 -33.5v-372h210q106 0 181 -75t75 -181t-75 -181t-181 -75h-256q-20 0 -33.5 13.5t-13.5 33.5v791h-47q-20 0 -33 13.5t-13 33zM214 93h210q68 0 115 47.5t47 115.5t-47 115.5t-115 47.5h-210v-326z" />
    <glyph glyph-name="afii10093" unicode="&#x44b;" 
d="M93 47v837q0 20 13.5 33.5t33 13.5t33 -13.5t13.5 -33.5v-372h117q106 0 181 -75t75 -181t-75 -181t-181 -75h-163q-20 0 -33.5 13.5t-13.5 33.5zM186 93h117q68 0 115 47.5t47 115.5t-47 115.5t-115 47.5h-117v-326zM652 47v837q0 20 13.5 33.5t33 13.5t33 -13.5
t13.5 -33.5v-837q0 -20 -13.5 -33.5t-33 -13.5t-33 13.5t-13.5 33.5z" />
    <glyph glyph-name="afii10094" unicode="&#x44c;" horiz-adv-x="716" 
d="M93 47v837q0 20 13.5 33.5t33 13.5t33 -13.5t13.5 -33.5v-372h210q106 0 181 -75t75 -181t-75 -181t-181 -75h-256q-20 0 -33.5 13.5t-13.5 33.5zM186 93h210q68 0 115.5 47.5t47.5 115.5t-47.5 115.5t-115.5 47.5h-210v-326z" />
    <glyph glyph-name="afii10095" unicode="&#x44d;" horiz-adv-x="716" 
d="M74 46.5q0 19.5 13.5 33t33.5 13.5h279q58 0 99 41t41 99v186h-186q-20 0 -33.5 13.5t-13.5 33t13.5 33t33.5 13.5h186v186q0 58 -41 99t-99 41h-279q-20 0 -33.5 13.5t-13.5 33t13.5 33t33.5 13.5h279q97 0 165 -68t68 -165v-465q0 -97 -68 -165t-165 -68h-279
q-20 0 -33.5 13.5t-13.5 33z" />
    <glyph glyph-name="afii10096" unicode="&#x44e;" horiz-adv-x="828" 
d="M93 47v837q0 20 13.5 33.5t33 13.5t33 -13.5t13.5 -33.5v-372h93v205q0 97 68 165t165 68t165 -68t68 -165v-503q0 -97 -68 -165t-165 -68t-165 68t-68 165v205h-93v-372q0 -20 -13.5 -33.5t-33 -13.5t-33 13.5t-13.5 33.5zM372 214q0 -58 41 -99t99 -41t99 41t41 99v503
q0 58 -41 98.5t-99 40.5t-99 -40.5t-41 -98.5v-503z" />
    <glyph glyph-name="afii10097" unicode="&#x44f;" horiz-adv-x="735" 
d="M84 47q0 13 5 22l198 355q-88 19 -145.5 89.5t-57.5 161.5q0 106 75 181t181 75h256q20 0 33 -13.5t13 -33.5v-837q0 -20 -13.5 -33.5t-33 -13.5t-33 13.5t-13.5 33.5v372h-159l-219 -395q-15 -24 -41 -24q-20 0 -33 13.5t-13 33.5zM177 675q0 -68 47.5 -115.5
t115.5 -47.5h209v326h-209q-68 0 -115.5 -47.5t-47.5 -115.5z" />
    <glyph glyph-name="uni0450" unicode="&#x450;" horiz-adv-x="726" 
d="M84 233v437q0 115 82 197.5t197 82.5t197 -82t82 -198v-205q0 -20 -13.5 -33t-32.5 -13h-419v-186q0 -58 41 -99t99 -41h279q20 0 33 -13.5t13 -33t-13.5 -33t-32.5 -13.5h-279q-97 0 -165 68t-68 165zM177 512h372v158q0 76 -55 131t-131 55t-131 -54.5t-55 -131.5v-158
zM270 1257q0 20 13.5 33t33.5 13q29 0 42 -26l46 -93q5 -11 5 -20q0 -20 -13.5 -33.5t-33.5 -13.5q-29 0 -42 26l-46 93q-5 11 -5 21z" />
    <glyph glyph-name="afii10071" unicode="&#x451;" horiz-adv-x="726" 
d="M84 233v437q0 115 82 197.5t197 82.5t197 -82t82 -198v-205q0 -20 -13.5 -33t-32.5 -13h-419v-186q0 -58 41 -99t99 -41h279q20 0 33 -13.5t13 -33t-13.5 -33t-32.5 -13.5h-279q-97 0 -165 68t-68 165zM177 512h372v158q0 76 -55 131t-131 55t-131 -54.5t-55 -131.5v-158
zM177 1256.5q0 19.5 13.5 33t33 13.5t33 -13.5t13.5 -33t-13.5 -33t-33 -13.5t-33 13.5t-13.5 33zM456 1256.5q0 19.5 13.5 33t33 13.5t33 -13.5t13.5 -33t-13.5 -33t-33 -13.5t-33 13.5t-13.5 33z" />
    <glyph glyph-name="afii10099" unicode="&#x452;" horiz-adv-x="791" 
d="M47 1163.5q0 19.5 13.5 33t32.5 13.5h47v47q0 20 13.5 33t33 13t33 -13.5t13.5 -32.5v-47h186q20 0 33 -13.5t13 -33t-13.5 -33t-32.5 -13.5h-186v-186h279q76 0 131 -55t55 -131v-931q0 -76 -55 -131t-131 -55h-47q-20 0 -33 13.5t-13 33t13.5 33t32.5 13.5h47
q38 0 65.5 27.5t27.5 65.5v931q0 38 -27.5 65.5t-65.5 27.5h-279v-791q0 -20 -13.5 -33.5t-33 -13.5t-33 13.5t-13.5 33.5v1070h-47q-20 0 -33 13.5t-13 33z" />
    <glyph glyph-name="afii10100" unicode="&#x453;" horiz-adv-x="698" 
d="M65 214q0 114 90 183l333 259q43 34 43 89q0 48 -35 75q-47 36 -142 36q-78 0 -121 -12t-70 -39q-14 -14 -33 -14q-20 0 -33 13.5t-13 33.5q0 19 14 32q78 80 256 80q128 0 200 -56q70 -55 70 -149q0 -101 -79 -162l-333 -259q-54 -42 -54 -110q0 -61 38 -97
q47 -43 148 -43q149 0 201 52q14 14 32 14q20 0 33.5 -13.5t13.5 -33.5q0 -19 -14 -32q-78 -79 -266 -80q-136 0 -210 67q-69 62 -69 166zM270 1164q0 9 4 20l47 93q13 26 42 26q20 0 33 -13.5t13 -32.5q0 -9 -4 -21l-47 -93q-13 -26 -42 -26q-20 0 -33 13.5t-13 33.5z" />
    <glyph glyph-name="afii10101" unicode="&#x454;" horiz-adv-x="716" 
d="M84 233v465q0 97 68 165t165 68h279q20 0 33 -13.5t13 -33t-13.5 -33t-32.5 -13.5h-279q-58 0 -99 -41t-41 -99v-186h186q20 0 33.5 -13.5t13.5 -33t-13.5 -33t-33.5 -13.5h-186v-186q0 -58 41 -99t99 -41h279q20 0 33 -13.5t13 -33t-13.5 -33t-32.5 -13.5h-279
q-97 0 -165 68t-68 165z" />
    <glyph glyph-name="afii10102" unicode="&#x455;" horiz-adv-x="698" 
d="M74 93q0 20 13.5 33.5t33.5 13.5q19 0 33 -14q51 -51 200 -52q101 0 148 43q38 35 38 97q0 68 -54 110l-332 259q-79 61 -80 162q0 94 70 149q72 56 200 56q178 0 256 -80q14 -14 14 -32q0 -20 -13.5 -33.5t-32.5 -13.5t-33 14q-27 27 -69.5 39t-121.5 12q-96 0 -142 -36
q-34 -27 -34 -75q0 -55 42 -89l334 -259q89 -70 89 -183q0 -103 -69 -166q-74 -67 -210 -67q-187 0 -266 80q-14 14 -14 32z" />
    <glyph glyph-name="afii10103" unicode="&#x456;" horiz-adv-x="279" 
d="M93 47v837q0 20 13.5 33.5t33 13.5t33 -13.5t13.5 -33.5v-837q0 -20 -13.5 -33.5t-33 -13.5t-33 13.5t-13.5 33.5zM93 1256.5q0 19.5 13.5 33t33 13.5t33 -13.5t13.5 -33t-13.5 -33t-33 -13.5t-33 13.5t-13.5 33z" />
    <glyph glyph-name="afii10104" unicode="&#x457;" horiz-adv-x="465" 
d="M46 1256.5q0 19.5 13.5 33t33 13.5t33 -13.5t13.5 -33t-13.5 -33t-33 -13.5t-33 13.5t-13.5 33zM186 47v837q0 20 13.5 33.5t33 13.5t33 -13.5t13.5 -33.5v-837q0 -20 -13.5 -33.5t-33 -13.5t-33 13.5t-13.5 33.5zM325 1256.5q0 19.5 13.5 33t33 13.5t33 -13.5t13.5 -33
t-13.5 -33t-33 -13.5t-33 13.5t-13.5 33z" />
    <glyph glyph-name="afii10105" unicode="&#x458;" horiz-adv-x="279" 
d="M-93 -325.5q0 19.5 13.5 33t32.5 13.5q58 0 99 41t41 98v1024q0 20 13.5 33.5t33 13.5t33 -13.5t13.5 -33.5v-1024q0 -97 -68 -164.5t-165 -67.5q-20 0 -33 13.5t-13 33zM93 1256.5q0 19.5 13.5 33t33 13.5t33 -13.5t13.5 -33t-13.5 -33t-33 -13.5t-33 13.5t-13.5 33z
" />
    <glyph glyph-name="afii10106" unicode="&#x459;" horiz-adv-x="1135" 
d="M47 47q0 5 1 12l233 837q5 15 17 25t28 10h233q20 0 33 -13.5t13 -33.5v-372h210q106 0 181 -75t75 -181t-75 -181t-181 -75h-256q-20 0 -33.5 13.5t-13.5 33.5v791h-151l-223 -804q-5 -15 -17 -24.5t-28 -9.5q-20 0 -33 13.5t-13 33.5zM605 93h210q68 0 115 47.5
t47 115.5t-47 115.5t-115 47.5h-210v-326z" />
    <glyph glyph-name="afii10107" unicode="&#x45a;" horiz-adv-x="1182" 
d="M93 47v837q0 20 13.5 33.5t33 13.5t33 -13.5t13.5 -33.5v-372h373v372q0 20 13.5 33.5t33 13.5t33 -13.5t13.5 -33.5v-372h209q106 0 181 -75t75 -181t-75 -181t-181 -75h-256q-20 0 -33 13.5t-13 33.5v372h-373v-372q0 -20 -13.5 -33.5t-33 -13.5t-33 13.5t-13.5 33.5z
M652 93h209q68 0 115.5 47.5t47.5 115.5t-47.5 115.5t-115.5 47.5h-209v-326z" />
    <glyph glyph-name="afii10108" unicode="&#x45b;" horiz-adv-x="791" 
d="M47 1163.5q0 19.5 13.5 33t32.5 13.5h47v47q0 20 13.5 33t33 13t33 -13.5t13.5 -32.5v-47h186q20 0 33 -13.5t13 -33t-13.5 -33t-32.5 -13.5h-186v-186h279q76 0 131 -55t55 -131v-698q0 -20 -13.5 -33.5t-33 -13.5t-33 13.5t-13.5 33.5v698q0 38 -27.5 65.5t-65.5 27.5
h-279v-791q0 -20 -13.5 -33.5t-33 -13.5t-33 13.5t-13.5 33.5v1070h-47q-20 0 -33 13.5t-13 33z" />
    <glyph glyph-name="afii10109" unicode="&#x45c;" horiz-adv-x="716" 
d="M93 47v837q0 20 13.5 33.5t33 13.5t33 -13.5t13.5 -33.5v-430l384 460q14 17 35 17q20 0 33.5 -13.5t13.5 -33.5q0 -16 -12 -29l-296 -356l299 -425q8 -11 9 -27q0 -20 -13.5 -33.5t-33.5 -13.5q-24 0 -38 20l-284 405l-97 -116v-262q0 -20 -13.5 -33.5t-33 -13.5
t-33 13.5t-13.5 33.5zM280 1164q0 9 4 20l47 93q13 26 42 26q20 0 33 -13.5t13 -32.5q0 -9 -4 -21l-47 -93q-13 -26 -42 -26q-20 0 -33 13.5t-13 33.5z" />
    <glyph glyph-name="uni045D" unicode="&#x45d;" horiz-adv-x="744" 
d="M93 233v651q0 20 13.5 33.5t33 13.5t33 -13.5t13.5 -33.5v-651q0 -58 41 -99t99 -41h233v791q0 20 13.5 33.5t33 13.5t33 -13.5t13.5 -33.5v-837q0 -20 -13.5 -33.5t-33.5 -13.5h-279q-97 0 -165 68t-68 165zM279 1257q0 20 13.5 33t33.5 13q29 0 42 -26l46 -93
q5 -11 5 -20q0 -20 -13.5 -33.5t-33.5 -13.5q-29 0 -42 26l-46 93q-5 11 -5 21z" />
    <glyph glyph-name="afii10110" unicode="&#x45e;" horiz-adv-x="744" 
d="M93 233v651q0 20 13.5 33.5t33 13.5t33 -13.5t13.5 -33.5v-651q0 -58 41 -99t99 -41h233v791q0 20 13.5 33.5t33 13.5t33 -13.5t13.5 -33.5v-1070q0 -76 -55 -131t-132 -55h-279q-20 0 -33 13.5t-13 33t13.5 33t32.5 13.5h279q38 0 66 27.5t28 65.5v186h-233
q-97 0 -165 68t-68 165zM233 1256.5q0 19.5 13 33t33 13.5h186q20 0 33.5 -13.5t13.5 -33t-13.5 -33t-33.5 -13.5h-186q-20 0 -33 13.5t-13 33z" />
    <glyph glyph-name="afii10193" unicode="&#x45f;" horiz-adv-x="744" 
d="M93 47v837q0 20 13.5 33.5t33 13.5t33 -13.5t13.5 -33.5v-791h373v791q0 20 13.5 33.5t33 13.5t33 -13.5t13.5 -33.5v-837q0 -20 -13.5 -33.5t-33.5 -13.5h-186v-140q0 -20 -13.5 -33t-33 -13t-33 13.5t-13.5 32.5v140h-186q-20 0 -33.5 13.5t-13.5 33.5z" />
    <glyph glyph-name="afii10050" unicode="&#x490;" horiz-adv-x="698" 
d="M93 47v1210q0 20 13.5 33t33.5 13h419v140q0 20 13.5 33t33 13t33 -13.5t13.5 -32.5v-186q0 -20 -13.5 -33.5t-33.5 -13.5h-419v-1163q0 -20 -13.5 -33.5t-33 -13.5t-33 13.5t-13.5 33.5z" />
    <glyph glyph-name="afii10098" unicode="&#x491;" horiz-adv-x="605" 
d="M93 47v837q0 20 13.5 33.5t33.5 13.5h325v93q0 20 13.5 33.5t33.5 13.5t33.5 -13.5t13.5 -33.5v-140q0 -20 -13.5 -33t-33.5 -13h-326v-791q0 -20 -13.5 -33.5t-33 -13.5t-33 13.5t-13.5 33.5z" />
    <glyph glyph-name="uni2000" unicode="&#x2000;" horiz-adv-x="791" 
 />
    <glyph glyph-name="uni2001" unicode="&#x2001;" horiz-adv-x="1583" 
 />
    <glyph glyph-name="uni2002" unicode="&#x2002;" horiz-adv-x="791" 
 />
    <glyph glyph-name="uni2003" unicode="&#x2003;" horiz-adv-x="1583" 
 />
    <glyph glyph-name="uni2004" unicode="&#x2004;" horiz-adv-x="527" 
 />
    <glyph glyph-name="uni2005" unicode="&#x2005;" horiz-adv-x="395" 
 />
    <glyph glyph-name="uni2006" unicode="&#x2006;" horiz-adv-x="263" 
 />
    <glyph glyph-name="uni2007" unicode="&#x2007;" horiz-adv-x="263" 
 />
    <glyph glyph-name="uni2008" unicode="&#x2008;" horiz-adv-x="197" 
 />
    <glyph glyph-name="uni2009" unicode="&#x2009;" horiz-adv-x="316" 
 />
    <glyph glyph-name="uni200A" unicode="&#x200a;" horiz-adv-x="87" 
 />
    <glyph glyph-name="uni2010" unicode="&#x2010;" horiz-adv-x="651" 
d="M47 465.5q0 19.5 13 33t33 13.5h466q20 0 33 -13.5t13 -33t-13.5 -33t-32.5 -13.5h-466q-20 0 -33 13.5t-13 33z" />
    <glyph glyph-name="uni2011" unicode="&#x2011;" horiz-adv-x="651" 
d="M47 465.5q0 19.5 13 33t33 13.5h466q20 0 33 -13.5t13 -33t-13.5 -33t-32.5 -13.5h-466q-20 0 -33 13.5t-13 33z" />
    <glyph glyph-name="figuredash" unicode="&#x2012;" horiz-adv-x="651" 
d="M47 465.5q0 19.5 13 33t33 13.5h466q20 0 33 -13.5t13 -33t-13.5 -33t-32.5 -13.5h-466q-20 0 -33 13.5t-13 33z" />
    <glyph glyph-name="endash" unicode="&#x2013;" horiz-adv-x="744" 
d="M47 465.5q0 19.5 13 33t33 13.5h559q20 0 33 -13.5t13 -33t-13.5 -33t-32.5 -13.5h-559q-20 0 -33 13.5t-13 33z" />
    <glyph glyph-name="emdash" unicode="&#x2014;" horiz-adv-x="930" 
d="M47 465.5q0 19.5 13 33t33 13.5h745q20 0 33 -13.5t13 -33t-13.5 -33t-32.5 -13.5h-745q-20 0 -33 13.5t-13 33z" />
    <glyph glyph-name="quoteleft" unicode="&#x2018;" horiz-adv-x="232" 
d="M47 1246q-1 4 0 11q0 20 13 33t33 13q16 0 29 -10t17 -25l46 -186q1 -4 1 -11q0 -20 -13.5 -33.5t-32.5 -13.5q-16 0 -29 10t-17 25z" />
    <glyph glyph-name="quoteright" unicode="&#x2019;" horiz-adv-x="232" 
d="M47 1071v11l47 186q4 15 17 25t29 10q20 0 33 -13.5t13 -32.5q0 -7 -1 -11l-46 -187q-4 -15 -17 -25t-29 -10q-20 0 -33 13.5t-13 33.5z" />
    <glyph glyph-name="quotesinglbase" unicode="&#x201a;" horiz-adv-x="232" 
d="M47 -128l47 186q4 15 17 25t29 10q20 0 33 -13.5t13 -32.5q0 -7 -1 -11l-46 -187q-4 -15 -17 -25t-29 -10q-20 0 -33 13.5t-13 33.5v11z" />
    <glyph glyph-name="quotedblleft" unicode="&#x201c;" horiz-adv-x="418" 
d="M47 1246q-1 4 0 11q0 20 13 33t33 13q16 0 29 -10t17 -25l46 -186q1 -4 1 -11q0 -20 -13.5 -33.5t-32.5 -13.5q-16 0 -29 10t-17 25zM233 1246q-1 4 0 11q0 20 13 33t33 13q16 0 29 -10t17 -25l46 -186q1 -4 1 -11q0 -20 -13.5 -33.5t-32.5 -13.5q-16 0 -29 10t-17 25z
" />
    <glyph glyph-name="quotedblright" unicode="&#x201d;" horiz-adv-x="418" 
d="M47 1071v11l47 186q4 15 17 25t29 10q20 0 33 -13.5t13 -32.5q0 -7 -1 -11l-46 -187q-4 -15 -17 -25t-29 -10q-20 0 -33 13.5t-13 33.5zM233 1071v11l47 186q4 15 17 25t29 10q20 0 33 -13.5t13 -32.5q0 -7 -1 -11l-46 -187q-4 -15 -17 -25t-29 -10q-20 0 -33 13.5
t-13 33.5z" />
    <glyph glyph-name="quotedblbase" unicode="&#x201e;" horiz-adv-x="418" 
d="M47 -128l47 186q4 15 17 25t29 10q20 0 33 -13.5t13 -32.5q0 -7 -1 -11l-46 -187q-4 -15 -17 -25t-29 -10q-20 0 -33 13.5t-13 33.5v11zM233 -128l47 186q4 15 17 25t29 10q20 0 33 -13.5t13 -32.5q0 -7 -1 -11l-46 -187q-4 -15 -17 -25t-29 -10q-20 0 -33 13.5t-13 33.5
v11z" />
    <glyph glyph-name="bullet" unicode="&#x2022;" horiz-adv-x="372" 
d="M93 465.5q0 38.5 27.5 66t65.5 27.5t65.5 -27.5t27.5 -66t-27.5 -66t-65.5 -27.5t-65.5 27.5t-27.5 66z" />
    <glyph glyph-name="ellipsis" unicode="&#x2026;" horiz-adv-x="651" 
d="M93 46.5q0 19.5 13.5 33t33 13.5t33 -13.5t13.5 -33t-13.5 -33t-33 -13.5t-33 13.5t-13.5 33zM279 46.5q0 19.5 13.5 33t33 13.5t33 -13.5t13.5 -33t-13.5 -33t-33 -13.5t-33 13.5t-13.5 33zM465 46.5q0 19.5 13.5 33t33 13.5t33 -13.5t13.5 -33t-13.5 -33t-33 -13.5
t-33 13.5t-13.5 33z" />
    <glyph glyph-name="uni202F" unicode="&#x202f;" horiz-adv-x="316" 
 />
    <glyph glyph-name="guilsinglleft" unicode="&#x2039;" horiz-adv-x="512" 
d="M93 465q0 14 9 28l232 325q14 20 38 20q20 0 33.5 -13.5t13.5 -33.5q0 -16 -8 -27l-215 -299l215 -298q8 -11 8 -27q0 -20 -13.5 -33.5t-33.5 -13.5q-24 0 -38 20l-232 325q-9 12 -9 27z" />
    <glyph glyph-name="guilsinglright" unicode="&#x203a;" horiz-adv-x="512" 
d="M93 140q0 16 8 27l215 298l-215 299q-8 11 -8 27q0 20 13.5 33.5t33.5 13.5q24 0 38 -20l232 -325q9 -14 9 -28q0 -16 -9 -27l-232 -325q-14 -20 -38 -20q-20 0 -33.5 13.5t-13.5 33.5z" />
    <glyph glyph-name="uni205F" unicode="&#x205f;" horiz-adv-x="395" 
 />
    <glyph glyph-name="Euro" unicode="&#x20ac;" horiz-adv-x="1210" 
d="M47 558.5q0 19.5 13.5 33t32.5 13.5h48q-2 32 -1.5 47t1.5 46h-48q-20 0 -33 13.5t-13 33t13.5 33t32.5 13.5h62q48 222 226 367t410 145q192 0 351 -102q21 -14 22 -39q0 -20 -13.5 -33.5t-33.5 -13.5q-13 0 -25 8q-137 88 -301 87q-194 0 -343.5 -118t-197.5 -301h681
q20 0 33 -13.5t13 -33t-13.5 -33t-32.5 -13.5h-696q-2 -30 -2 -46.5t2 -46.5h603q20 0 33 -13.5t13 -33t-13.5 -33t-32.5 -13.5h-588q47 -182 197.5 -300.5t343.5 -118.5q137 0 258 63q9 5 22 5q20 0 33 -13.5t13 -32.5q0 -29 -25 -41q-141 -74 -301 -74q-232 0 -410 145
t-226 367h-62q-20 0 -33 13.5t-13 33z" />
    <glyph glyph-name="trademark" unicode="&#x2122;" horiz-adv-x="1303" 
d="M65 1256.5q0 19.5 13.5 33t33.5 13.5h372q20 0 33.5 -13.5t13.5 -33t-13.5 -33t-33.5 -13.5h-140v-512q0 -20 -13.5 -33t-33 -13t-33 13.5t-13.5 32.5v512h-139q-20 0 -33.5 13.5t-13.5 33zM652 698v559q0 20 13 33t33 13q24 0 38 -19l195 -273l194 273q14 20 39 19
q20 0 33 -13.5t13 -32.5v-559q0 -20 -13.5 -33t-33 -13t-33 13.5t-13.5 32.5v414l-148 -207q-14 -20 -38 -20.5t-38 20.5l-148 207v-414q0 -20 -13.5 -33t-33 -13t-33 13.5t-13.5 32.5z" />
    <glyph glyph-name="uni25FC" unicode="&#x25fc;" horiz-adv-x="930" 
d="M0 0v931h931v-931h-931z" />
    </font>
</defs>
</svg>
